<?xml version="1.0" encoding="utf-8"?>
<!-- Generator: Adobe Illustrator 27.5.0, SVG Export Plug-In . SVG Version: 6.00 Build 0)  -->
<svg version="1.1" xmlns="http://www.w3.org/2000/svg" xmlns:xlink="http://www.w3.org/1999/xlink" x="0px" y="0px"
	 viewBox="0 0 500 500" style="enable-background:new 0 0 500 500;" xml:space="preserve">
<g id="Background_Complete">
	<rect x="416.779" y="398.494" style="fill:#EBEBEB;" width="33.122" height="0.25"/>
	<rect x="322.527" y="401.208" style="fill:#EBEBEB;" width="8.693" height="0.25"/>
	<rect x="396.586" y="389.208" style="fill:#EBEBEB;" width="19.192" height="0.25"/>
	<rect x="52.459" y="390.888" style="fill:#EBEBEB;" width="43.193" height="0.25"/>
	<rect x="104.556" y="390.888" style="fill:#EBEBEB;" width="6.333" height="0.25"/>
	<rect x="131.471" y="395.111" style="fill:#EBEBEB;" width="93.676" height="0.25"/>
	<path style="fill:#EBEBEB;" d="M237.014,337.8H43.915c-3.147,0-5.708-2.561-5.708-5.708V60.66c0-3.147,2.561-5.708,5.708-5.708
		h193.099c3.146,0,5.707,2.561,5.707,5.708v271.432C242.721,335.239,240.16,337.8,237.014,337.8z M43.915,55.203
		c-3.01,0-5.458,2.448-5.458,5.458v271.432c0,3.01,2.448,5.458,5.458,5.458h193.099c3.009,0,5.457-2.448,5.457-5.458V60.66
		c0-3.009-2.448-5.458-5.457-5.458H43.915z"/>
	<path style="fill:#EBEBEB;" d="M453.31,337.8H260.212c-3.147,0-5.707-2.561-5.707-5.708V60.66c0-3.147,2.561-5.708,5.707-5.708
		H453.31c3.148,0,5.708,2.561,5.708,5.708v271.432C459.019,335.239,456.458,337.8,453.31,337.8z M260.212,55.203
		c-3.009,0-5.457,2.448-5.457,5.458v271.432c0,3.01,2.448,5.458,5.457,5.458H453.31c3.01,0,5.458-2.448,5.458-5.458V60.66
		c0-3.009-2.448-5.458-5.458-5.458H260.212z"/>
	<rect y="382.398" style="fill:#EBEBEB;" width="500" height="0.25"/>
	<g>
		<g>
			<rect x="306.355" y="94.821" style="fill:#E0E0E0;" width="128.896" height="285.02"/>
			<path style="fill:#E6E6E6;" d="M435.251,92.321v290.02h23.748V92.321H435.251z"/>
			<path style="fill:#E6E6E6;" d="M283.746,92.321v290.02h23.748V92.321H283.746z"/>
			<path style="fill:#F5F5F5;" d="M279.713,92.321v290.02h158.386V92.321H279.713z M432.402,97.321v52.004H285.411V97.321H432.402z
				 M285.411,263.332v-52.003h146.991v52.003H285.411z M432.402,268.333v52.004H285.411v-52.004H432.402z M285.411,206.329v-52.004
				h146.991v52.004H285.411z M285.411,377.34v-52.004h146.991v52.004H285.411z"/>
			<g>
				
					<rect x="381.05" y="109.451" transform="matrix(-1 -1.224647e-16 1.224647e-16 -1 767.5792 259.2536)" style="fill:#E6E6E6;" width="5.478" height="40.351"/>
				
					<rect x="386.529" y="109.451" transform="matrix(-1 -1.224647e-16 1.224647e-16 -1 778.5363 259.2536)" style="fill:#E0E0E0;" width="5.478" height="40.351"/>
				
					<rect x="370.093" y="112.287" transform="matrix(-1 -1.224647e-16 1.224647e-16 -1 751.1434 262.0894)" style="fill:#E6E6E6;" width="10.957" height="37.516"/>
				
					<rect x="357.534" y="109.451" transform="matrix(-1 -1.224647e-16 1.224647e-16 -1 722.1482 259.2536)" style="fill:#F0F0F0;" width="7.08" height="40.351"/>
				
					<rect x="364.614" y="109.451" transform="matrix(-1 -1.224647e-16 1.224647e-16 -1 734.7073 259.2536)" style="fill:#EBEBEB;" width="5.479" height="40.351"/>
				
					<rect x="315.98" y="109.451" transform="matrix(-1 -1.224647e-16 1.224647e-16 -1 639.0409 259.2536)" style="fill:#E6E6E6;" width="7.081" height="40.351"/>
				
					<rect x="323.061" y="109.451" transform="matrix(-1 -1.224647e-16 1.224647e-16 -1 651.6 259.2536)" style="fill:#EBEBEB;" width="5.478" height="40.351"/>
				
					<rect x="339.496" y="109.451" transform="matrix(-1 -1.224647e-16 1.224647e-16 -1 686.0731 259.2536)" style="fill:#E6E6E6;" width="7.081" height="40.351"/>
				
					<rect x="346.577" y="109.451" transform="matrix(-1 -1.224647e-16 1.224647e-16 -1 698.6322 259.2536)" style="fill:#E0E0E0;" width="5.478" height="40.351"/>
				
					<rect x="305.023" y="110.407" transform="matrix(-1 -1.224647e-16 1.224647e-16 -1 621.0031 260.2095)" style="fill:#EBEBEB;" width="10.957" height="39.396"/>
				
					<rect x="299.544" y="110.407" transform="matrix(-1 -1.224647e-16 1.224647e-16 -1 604.5673 260.2095)" style="fill:#E0E0E0;" width="5.479" height="39.396"/>
				
					<rect x="332.191" y="110.407" transform="matrix(-1 -1.224647e-16 1.224647e-16 -1 671.6876 260.2095)" style="fill:#E0E0E0;" width="7.305" height="39.396"/>
				
					<rect x="328.539" y="110.407" transform="matrix(-1 -1.224647e-16 1.224647e-16 -1 660.7304 260.2095)" style="fill:#F0F0F0;" width="3.652" height="39.396"/>
				
					<rect x="346.577" y="112.287" transform="matrix(-1 -1.224647e-16 1.224647e-16 -1 704.1105 262.0894)" style="fill:#F5F5F5;" width="10.957" height="37.516"/>
				
					<rect x="408.443" y="109.451" transform="matrix(-1 -1.224647e-16 1.224647e-16 -1 823.967 259.2536)" style="fill:#EBEBEB;" width="7.081" height="40.351"/>
				
					<rect x="415.524" y="109.451" transform="matrix(-1 -1.224647e-16 1.224647e-16 -1 836.5261 259.2536)" style="fill:#E6E6E6;" width="5.478" height="40.351"/>
				
					<rect x="397.486" y="110.407" transform="matrix(-1 -1.224647e-16 1.224647e-16 -1 805.9293 260.2095)" style="fill:#E0E0E0;" width="10.957" height="39.396"/>
				
					<rect x="392.007" y="110.407" transform="matrix(-1 -1.224647e-16 1.224647e-16 -1 789.4935 260.2095)" style="fill:#EBEBEB;" width="5.479" height="39.396"/>
				
					<rect x="424.654" y="110.407" transform="matrix(-1 -1.224647e-16 1.224647e-16 -1 856.6135 260.2095)" style="fill:#EBEBEB;" width="7.305" height="39.396"/>
				
					<rect x="421.002" y="110.407" transform="matrix(-1 -1.224647e-16 1.224647e-16 -1 845.6563 260.2095)" style="fill:#FAFAFA;" width="3.652" height="39.396"/>
			</g>
			<g>
				<rect x="344.975" y="165.955" style="fill:#E6E6E6;" width="5.478" height="40.351"/>
				<rect x="339.496" y="165.955" style="fill:#E0E0E0;" width="5.478" height="40.351"/>
				<rect x="350.453" y="168.791" style="fill:#E6E6E6;" width="10.957" height="37.516"/>
				<rect x="366.889" y="165.955" style="fill:#F0F0F0;" width="7.081" height="40.351"/>
				<rect x="361.411" y="165.955" style="fill:#EBEBEB;" width="5.479" height="40.351"/>
				<rect x="408.443" y="165.955" style="fill:#E6E6E6;" width="7.081" height="40.351"/>
				<rect x="402.964" y="165.955" style="fill:#EBEBEB;" width="5.478" height="40.351"/>
				<rect x="384.927" y="165.955" style="fill:#E6E6E6;" width="7.081" height="40.351"/>
				<rect x="379.448" y="165.955" style="fill:#E0E0E0;" width="5.478" height="40.351"/>
				<rect x="415.523" y="166.911" style="fill:#EBEBEB;" width="10.957" height="39.396"/>
				<rect x="426.481" y="166.911" style="fill:#E0E0E0;" width="5.479" height="39.396"/>
				<rect x="392.007" y="166.911" style="fill:#E0E0E0;" width="7.305" height="39.396"/>
				<rect x="399.312" y="166.911" style="fill:#F0F0F0;" width="3.652" height="39.396"/>
				<rect x="373.97" y="168.791" style="fill:#F5F5F5;" width="10.957" height="37.516"/>
				<rect x="315.98" y="165.955" style="fill:#EBEBEB;" width="7.081" height="40.351"/>
				<rect x="310.501" y="165.955" style="fill:#E6E6E6;" width="5.478" height="40.351"/>
				<rect x="323.06" y="166.911" style="fill:#E0E0E0;" width="10.957" height="39.396"/>
				<rect x="334.018" y="166.911" style="fill:#EBEBEB;" width="5.479" height="39.396"/>
				<rect x="299.544" y="166.911" style="fill:#EBEBEB;" width="7.305" height="39.396"/>
				<rect x="306.849" y="166.911" style="fill:#FAFAFA;" width="3.652" height="39.396"/>
			</g>
			<g>
				<rect x="344.975" y="223.459" style="fill:#E6E6E6;" width="5.478" height="40.351"/>
				<rect x="339.496" y="223.459" style="fill:#E0E0E0;" width="5.478" height="40.351"/>
				<rect x="350.453" y="226.295" style="fill:#E6E6E6;" width="10.957" height="37.516"/>
				<rect x="366.889" y="223.459" style="fill:#F0F0F0;" width="7.081" height="40.351"/>
				<rect x="361.411" y="223.459" style="fill:#EBEBEB;" width="5.479" height="40.351"/>
				<rect x="408.443" y="223.459" style="fill:#E6E6E6;" width="7.081" height="40.351"/>
				<rect x="402.964" y="223.459" style="fill:#EBEBEB;" width="5.478" height="40.351"/>
				<rect x="384.927" y="223.459" style="fill:#E6E6E6;" width="7.081" height="40.351"/>
				<rect x="379.448" y="223.459" style="fill:#E0E0E0;" width="5.478" height="40.351"/>
				<rect x="415.523" y="224.415" style="fill:#EBEBEB;" width="10.957" height="39.396"/>
				<rect x="426.481" y="224.415" style="fill:#E0E0E0;" width="5.479" height="39.396"/>
				<rect x="392.007" y="224.415" style="fill:#E0E0E0;" width="7.305" height="39.396"/>
				<rect x="399.312" y="224.415" style="fill:#F0F0F0;" width="3.652" height="39.396"/>
				<rect x="373.97" y="226.295" style="fill:#F5F5F5;" width="10.957" height="37.516"/>
				<rect x="315.98" y="223.459" style="fill:#EBEBEB;" width="7.081" height="40.351"/>
				<rect x="310.501" y="223.459" style="fill:#E6E6E6;" width="5.478" height="40.351"/>
				<rect x="323.06" y="224.415" style="fill:#E0E0E0;" width="10.957" height="39.396"/>
				<rect x="334.018" y="224.415" style="fill:#EBEBEB;" width="5.479" height="39.396"/>
				<rect x="299.544" y="224.415" style="fill:#EBEBEB;" width="7.305" height="39.396"/>
				<rect x="306.849" y="224.415" style="fill:#FAFAFA;" width="3.652" height="39.396"/>
			</g>
			<g>
				
					<rect x="381.05" y="280.963" transform="matrix(-1 -1.224647e-16 1.224647e-16 -1 767.5792 602.2772)" style="fill:#E6E6E6;" width="5.478" height="40.351"/>
				
					<rect x="386.529" y="280.963" transform="matrix(-1 -1.224647e-16 1.224647e-16 -1 778.5363 602.2772)" style="fill:#E0E0E0;" width="5.478" height="40.351"/>
				
					<rect x="370.093" y="280.963" transform="matrix(-1 -1.224647e-16 1.224647e-16 -1 751.1434 599.4414)" style="fill:#E6E6E6;" width="10.957" height="37.516"/>
				
					<rect x="357.534" y="280.963" transform="matrix(-1 -1.224647e-16 1.224647e-16 -1 722.1482 602.2772)" style="fill:#F0F0F0;" width="7.08" height="40.351"/>
				
					<rect x="364.614" y="280.963" transform="matrix(-1 -1.224647e-16 1.224647e-16 -1 734.7073 602.2772)" style="fill:#EBEBEB;" width="5.479" height="40.351"/>
				
					<rect x="315.98" y="280.963" transform="matrix(-1 -1.224647e-16 1.224647e-16 -1 639.0409 602.2772)" style="fill:#E6E6E6;" width="7.081" height="40.351"/>
				
					<rect x="323.061" y="280.963" transform="matrix(-1 -1.224647e-16 1.224647e-16 -1 651.6 602.2772)" style="fill:#EBEBEB;" width="5.478" height="40.351"/>
				
					<rect x="339.496" y="280.963" transform="matrix(-1 -1.224647e-16 1.224647e-16 -1 686.0731 602.2772)" style="fill:#E6E6E6;" width="7.081" height="40.351"/>
				
					<rect x="346.577" y="280.963" transform="matrix(-1 -1.224647e-16 1.224647e-16 -1 698.6322 602.2772)" style="fill:#E0E0E0;" width="5.478" height="40.351"/>
				
					<rect x="305.023" y="280.963" transform="matrix(-1 -1.224647e-16 1.224647e-16 -1 621.0031 601.3213)" style="fill:#EBEBEB;" width="10.957" height="39.396"/>
				
					<rect x="299.544" y="280.963" transform="matrix(-1 -1.224647e-16 1.224647e-16 -1 604.5673 601.3213)" style="fill:#E0E0E0;" width="5.479" height="39.396"/>
				
					<rect x="332.191" y="280.963" transform="matrix(-1 -1.224647e-16 1.224647e-16 -1 671.6876 601.3213)" style="fill:#E0E0E0;" width="7.305" height="39.396"/>
				
					<rect x="328.539" y="280.963" transform="matrix(-1 -1.224647e-16 1.224647e-16 -1 660.7304 601.3213)" style="fill:#F0F0F0;" width="3.652" height="39.396"/>
				
					<rect x="346.577" y="280.963" transform="matrix(-1 -1.224647e-16 1.224647e-16 -1 704.1105 599.4414)" style="fill:#F5F5F5;" width="10.957" height="37.516"/>
				
					<rect x="408.443" y="280.963" transform="matrix(-1 -1.224647e-16 1.224647e-16 -1 823.967 602.2772)" style="fill:#EBEBEB;" width="7.081" height="40.351"/>
				
					<rect x="415.524" y="280.963" transform="matrix(-1 -1.224647e-16 1.224647e-16 -1 836.5261 602.2772)" style="fill:#E6E6E6;" width="5.478" height="40.351"/>
				
					<rect x="397.486" y="280.963" transform="matrix(-1 -1.224647e-16 1.224647e-16 -1 805.9293 601.3213)" style="fill:#E0E0E0;" width="10.957" height="39.396"/>
				
					<rect x="392.007" y="280.963" transform="matrix(-1 -1.224647e-16 1.224647e-16 -1 789.4935 601.3213)" style="fill:#EBEBEB;" width="5.479" height="39.396"/>
				
					<rect x="424.654" y="280.963" transform="matrix(-1 -1.224647e-16 1.224647e-16 -1 856.6135 601.3213)" style="fill:#EBEBEB;" width="7.305" height="39.396"/>
				
					<rect x="421.002" y="280.963" transform="matrix(-1 -1.224647e-16 1.224647e-16 -1 845.6563 601.3213)" style="fill:#FAFAFA;" width="3.652" height="39.396"/>
			</g>
			<g>
				<rect x="344.975" y="338.467" style="fill:#E6E6E6;" width="5.478" height="40.352"/>
				<rect x="339.496" y="338.467" style="fill:#E0E0E0;" width="5.478" height="40.352"/>
				<rect x="350.453" y="338.467" style="fill:#E6E6E6;" width="10.957" height="37.516"/>
				<rect x="366.889" y="338.467" style="fill:#F0F0F0;" width="7.081" height="40.352"/>
				<rect x="361.411" y="338.467" style="fill:#EBEBEB;" width="5.479" height="40.352"/>
				<rect x="408.443" y="338.467" style="fill:#E6E6E6;" width="7.081" height="40.352"/>
				<rect x="402.964" y="338.467" style="fill:#EBEBEB;" width="5.478" height="40.352"/>
				<rect x="384.927" y="338.467" style="fill:#E6E6E6;" width="7.081" height="40.352"/>
				<rect x="379.448" y="338.467" style="fill:#E0E0E0;" width="5.478" height="40.352"/>
				<rect x="415.523" y="338.467" style="fill:#EBEBEB;" width="10.957" height="39.396"/>
				<rect x="426.481" y="338.467" style="fill:#E0E0E0;" width="5.479" height="39.396"/>
				<rect x="392.007" y="338.467" style="fill:#E0E0E0;" width="7.305" height="39.396"/>
				<rect x="399.312" y="338.467" style="fill:#F0F0F0;" width="3.652" height="39.396"/>
				<rect x="373.97" y="338.467" style="fill:#F5F5F5;" width="10.957" height="37.516"/>
				<rect x="315.98" y="338.467" style="fill:#EBEBEB;" width="7.081" height="40.352"/>
				<rect x="310.501" y="338.467" style="fill:#E6E6E6;" width="5.478" height="40.352"/>
				<rect x="323.06" y="338.467" style="fill:#E0E0E0;" width="10.957" height="39.396"/>
				<rect x="334.018" y="338.467" style="fill:#EBEBEB;" width="5.479" height="39.396"/>
				<rect x="299.544" y="338.467" style="fill:#EBEBEB;" width="7.305" height="39.396"/>
				<rect x="306.849" y="338.467" style="fill:#FAFAFA;" width="3.652" height="39.396"/>
			</g>
		</g>
		<g>
			<path style="fill:#E0E0E0;" d="M148.127,100.627c0.889,4.75,1.487,13.635,1.487,23.822c0,10.186-0.598,19.072-1.487,23.822
				c0.48,0.193,0.929,0.483,1.318,0.872c1.545,1.545,0.989,4.607,0,5.596c-0.989,0.989-4.051,1.545-5.596,0
				c-0.33-0.33-0.368-0.913-0.764-1.109c-3.313-1.637-9.634,1.279-16.454,1.279c-6.818,0-13.137-2.913-16.451-1.278
				c-1.327,0.655-1.987,2.267-3.565,2.267c-1.578,0-2.238-1.612-3.565-2.267c-3.314-1.635-9.633,1.278-16.451,1.278
				c-6.82,0-13.141-2.915-16.454-1.279c-0.396,0.195-0.434,0.779-0.764,1.109c-1.545,1.545-4.607,0.989-5.597,0
				c-0.989-0.989-1.545-4.051,0-5.596c0.389-0.389,1.069-0.418,1.318-0.872c2.323-4.237-1.487-13.635-1.487-23.822
				s3.81-19.584,1.487-23.822c-0.248-0.453-0.929-0.483-1.318-0.872c-1.545-1.545-0.989-4.607,0-5.596
				c0.989-0.989,4.051-1.545,5.597,0c0.33,0.33,0.368,0.913,0.764,1.109c3.313,1.637,9.634-1.279,16.454-1.279
				c6.818,0,13.137,2.913,16.451,1.278c1.327-0.655,1.987-2.267,3.565-2.267c1.578,0,2.238,1.612,3.565,2.267
				c3.314,1.635,9.633-1.278,16.451-1.278c6.82,0,13.141,2.915,16.454,1.279c0.396-0.196,0.434-0.779,0.764-1.109
				c1.545-1.545,4.607-0.989,5.596,0c0.989,0.989,1.545,4.051,0,5.596C149.056,100.144,148.607,100.434,148.127,100.627z"/>
			<path style="fill:#FAFAFA;" d="M146.323,98.823c0.889,4.75,1.487,13.635,1.487,23.822c0,10.186-0.598,19.072-1.487,23.822
				c0.48,0.193,0.929,0.483,1.318,0.872c1.545,1.545,0.989,4.607,0,5.596c-0.989,0.989-4.051,1.545-5.596,0
				c-0.33-0.33-0.368-0.913-0.764-1.109c-3.313-1.637-9.634,1.279-16.454,1.279c-6.818,0-13.137-2.913-16.451-1.278
				c-1.327,0.655-1.987,2.267-3.565,2.267c-1.578,0-2.238-1.612-3.565-2.267c-3.314-1.635-9.633,1.278-16.451,1.278
				c-6.82,0-13.141-2.915-16.454-1.279c-0.396,0.196-0.434,0.779-0.764,1.109c-1.545,1.545-4.607,0.989-5.597,0
				c-0.989-0.989-1.545-4.051,0-5.596c0.389-0.389,1.069-0.419,1.318-0.872c2.323-4.237-1.487-13.635-1.487-23.822
				s3.81-19.584,1.487-23.822c-0.248-0.453-0.929-0.483-1.318-0.872c-1.545-1.545-0.989-4.607,0-5.596
				c0.989-0.989,4.051-1.545,5.597,0c0.33,0.33,0.368,0.913,0.764,1.109c3.313,1.637,9.634-1.279,16.454-1.279
				c6.818,0,13.137,2.913,16.451,1.278c1.327-0.655,1.987-2.267,3.565-2.267c1.578,0,2.238,1.612,3.565,2.267
				c3.314,1.635,9.633-1.278,16.451-1.278c6.82,0,13.141,2.915,16.454,1.279c0.396-0.196,0.434-0.779,0.764-1.109
				c1.545-1.545,4.607-0.989,5.596,0c0.989,0.989,1.545,4.051,0,5.596C147.252,98.34,146.802,98.63,146.323,98.823z"/>
			
				<rect x="80.973" y="87.114" transform="matrix(-1.836970e-16 1 -1 -1.836970e-16 227.4547 17.8344)" style="fill:#EBEBEB;" width="47.675" height="71.06"/>
			
				<rect x="84.262" y="92.017" transform="matrix(-1.836970e-16 1 -1 -1.836970e-16 227.4547 17.8344)" style="fill:#F5F5F5;" width="41.097" height="61.255"/>
			<g>
				
					<ellipse transform="matrix(0.9732 -0.2298 0.2298 0.9732 -26.0617 25.0655)" style="fill:#E0E0E0;" cx="94.607" cy="124.449" rx="8.245" ry="8.245"/>
				<polygon style="fill:#EBEBEB;" points="126.658,116.203 112.235,128.26 126.658,132.694 				"/>
				<g>
					<path style="fill:#EBEBEB;" d="M84.36,110.396c9.396-5.77,21.062-1.596,28.725,4.958c1.177,1.007-0.53,2.701-1.7,1.7
						c-6.843-5.853-17.388-9.755-25.812-4.582C84.251,113.283,83.043,111.204,84.36,110.396L84.36,110.396z"/>
				</g>
				<polygon style="fill:#EBEBEB;" points="78.082,134.67 82.588,130.263 86.362,134.67 82.222,138.676 				"/>
			</g>
		</g>
		<g>
			<g>
				<g>
					<g>
						<path style="fill:#FAFAFA;" d="M75.432,221.224c0,0,4.748,20.634,2.9,40.846c-1.449,15.845-5.189,31.48-5.189,31.48
							s21.575-2.488,46.99-3.342c20.852-0.701,41.722,0.895,62.246,4.616l17.31,1.727c0,0-10.677-46.198-1.845-74.297
							L75.432,221.224z"/>
					</g>
					<polygon style="fill:#EBEBEB;" points="202.392,228.936 68.796,228.499 68.796,217.35 201.883,215.232 					"/>
					<g>
						<path style="fill:#F5F5F5;" d="M98.26,217.139l-0.72-0.643l37.428-41.885c0.624-0.698,1.521-1.104,2.461-1.114
							c0.976,0.005,1.845,0.378,2.484,1.062l37.59,40.343l-0.706,0.658l-37.59-40.343c-0.453-0.487-1.109-0.759-1.767-0.755
							c-0.67,0.007-1.307,0.296-1.751,0.791L98.26,217.139z"/>
					</g>
				</g>
				<path style="fill:#E0E0E0;" d="M138.704,175.148c0,0.645-0.528,1.168-1.18,1.168c-0.652,0-1.18-0.523-1.18-1.168
					s0.528-1.168,1.18-1.168C138.176,173.98,138.704,174.503,138.704,175.148z"/>
			</g>
			<path style="fill:#EBEBEB;" d="M155.886,243.57c-1.809,1.245-3.358,2.867-4.519,4.732c1.307,1.157,2.614,2.315,3.922,3.472
				c0.275-0.984,0.557-1.983,1.103-2.846c0.546-0.863,1.404-1.586,2.416-1.721c0.579-0.077,1.168,0.04,1.719,0.234
				c1.657,0.582,2.992,1.812,4.275,3.01c1.575-0.201,2.313-2.308,1.641-3.747c-0.672-1.439-2.233-2.245-3.761-2.677
				c1.448-1.684,3.006-3.272,4.661-4.753c-0.738-1.712-3.121-2.154-4.827-1.403c-1.706,0.751-2.884,2.323-3.982,3.83
				c0.521-0.715-3.319-4.963-4.106-5.225c-2.16-0.72-3.733,1.504-4.813,3.067C151.905,240.608,154.063,241.759,155.886,243.57z"/>
			<g>
				<g>
					<path style="fill:#E0E0E0;" d="M95.175,281.316l-0.466-0.122L95.175,281.316z M94.73,281.205l-0.491-0.123l0.038-0.104
						L94.73,281.205z"/>
				</g>
				<g>
					<path style="fill:#E0E0E0;" d="M95.931,279.499l-0.884-0.387c0.54-1.235,1.14-2.492,1.782-3.738l0,0
						c0.3-0.583,0.627-1.194,0.977-1.825l0.844,0.469c-0.345,0.621-0.666,1.224-0.963,1.799l-0.422-0.218l0.422,0.218
						C97.054,277.044,96.463,278.283,95.931,279.499z"/>
				</g>
				<g>
					<path style="fill:#E0E0E0;" d="M100.752,270.518L99.937,270l0.011-0.017L100.752,270.518z M101.892,268.834l-0.788-0.556
						c0.826-1.169,1.682-2.274,2.545-3.284l0.367,0.314l-0.367-0.314c0.45-0.526,0.916-1.043,1.397-1.544l0.697,0.667
						c-0.468,0.488-0.921,0.992-1.359,1.505l0,0C103.538,266.608,102.701,267.69,101.892,268.834z M148.66,261.874l-0.327-0.004
						c-0.75-0.014-1.533-0.039-2.346-0.076l0.044-0.963c0.804,0.036,1.578,0.06,2.319,0.074l0.31,0.004
						c0.452,0,0.929-0.019,1.421-0.057l0,0c0.658-0.052,1.33-0.138,1.995-0.254l0.167,0.95c-0.695,0.122-1.397,0.211-2.086,0.265
						l-0.039-0.499l0.039,0.499C149.639,261.855,149.137,261.874,148.66,261.874z M143.9,261.674l0.048-0.962l0.089,0.006
						L143.9,261.674z M108.698,261.399l-0.609-0.746l0.073-0.057L108.698,261.399z M139.809,261.307
						c-0.672-0.076-1.356-0.16-2.05-0.255l0.064-0.476l-0.064,0.476c-1.367-0.185-2.74-0.402-4.082-0.648l0.174-0.95
						c1.327,0.243,2.685,0.458,4.037,0.642l0,0c0.687,0.092,1.364,0.176,2.03,0.251L139.809,261.307z M156.25,260.409l-0.354-0.895
						l0.089-0.033L156.25,260.409z M110.352,260.199l-0.533-0.805c1.222-0.809,2.476-1.465,3.725-1.951l0.004,0.011l-0.005-0.012
						c0.666-0.259,1.343-0.476,2.012-0.644l0.235,0.937c-0.629,0.158-1.268,0.361-1.896,0.606v0.001
						C112.709,258.804,111.517,259.428,110.352,260.199z M131.632,260.005l0.173-0.948l0.076,0.015L131.632,260.005z
						 M158.195,259.436l-0.504-0.824c1.251-0.766,2.152-1.671,2.678-2.691l0,0c0.287-0.558,0.464-1.158,0.526-1.782l0.961,0.094
						c-0.074,0.747-0.285,1.462-0.629,2.129l-0.199-0.103l0.2,0.104C160.618,257.542,159.598,258.576,158.195,259.436z
						 M127.622,259.073c-0.661-0.172-1.326-0.352-1.995-0.543l0.134-0.469l-0.134,0.469c-0.58-0.166-1.163-0.339-1.748-0.52
						c-0.722-0.223-1.451-0.397-2.169-0.516l0.157-0.952c0.761,0.125,1.534,0.309,2.297,0.546c0.578,0.179,1.154,0.351,1.728,0.515
						c0.661,0.189,1.318,0.366,1.972,0.535L127.622,259.073z M119.69,257.3l0.043-0.962l0.084,0.005L119.69,257.3z"/>
				</g>
				<g>
					<polygon style="fill:#E0E0E0;" points="160.116,250.401 160.08,250.311 161.005,250.034 					"/>
				</g>
			</g>
		</g>
	</g>
</g>
<g id="Background_Simple" style="display:none;">
	<g style="display:inline;">
		<g>
			<path style="fill:#407BFF;" d="M122.536,209.238c-28.166,12.72-44.934,41.636-50.8,70.363
				c-4.56,22.331-2.641,46.311,8.712,66.416c18.759,33.22,59.21,50.336,98.273,59.129c45.815,10.313,94.638,12.322,139.689-0.602
				c45.051-12.925,85.899-41.977,105.419-82.078c10.405-21.374,14.513-45.959,8.078-68.659c-6.435-22.7-24.308-43.026-48.142-50.441
				c-29.943-9.315-63.9,3.033-86.097,24.005c-11.017,10.409-22.541,23.972-38.162,22.897c-9.715-0.669-17.722-7.078-24.964-13.169
				C226.136,230.029,179.42,183.548,122.536,209.238z"/>
		</g>
		<g style="opacity:0.9;">
			<path style="fill:#FFFFFF;" d="M122.536,209.238c-28.166,12.72-44.934,41.636-50.8,70.363
				c-4.56,22.331-2.641,46.311,8.712,66.416c18.759,33.22,59.21,50.336,98.273,59.129c45.815,10.313,94.638,12.322,139.689-0.602
				c45.051-12.925,85.899-41.977,105.419-82.078c10.405-21.374,14.513-45.959,8.078-68.659c-6.435-22.7-24.308-43.026-48.142-50.441
				c-29.943-9.315-63.9,3.033-86.097,24.005c-11.017,10.409-22.541,23.972-38.162,22.897c-9.715-0.669-17.722-7.078-24.964-13.169
				C226.136,230.029,179.42,183.548,122.536,209.238z"/>
		</g>
	</g>
</g>
<g id="Shadow">
	<ellipse id="_x3C_Path_x3E__359_" style="fill:#F5F5F5;" cx="250" cy="415.693" rx="193.889" ry="11.323"/>
</g>
<g id="Knowledges">
	<g>
		<g>
			<g>
				<g>
					<path style="fill:#407BFF;" d="M312.804,184.608c-4.15,4.726-9.62,7.757-14.48,11.586c-4.85,3.84-9.38,9.07-10.1,15.569
						c-0.77,6.925,2.93,13.49,3.58,20.426c1.2,12.801-9.08,24.704-20.71,26.64c-11.63,1.926-23.46-4.496-31.3-14.091
						c-4.12-5.055-7.42-11.17-8.21-17.899c-1.35-11.477,4.68-22.778,3.73-34.31c-1.07-13.019-10.66-23.172-20.45-30.688
						c-9.78-7.516-20.75-14.092-27.26-25.065c-7.84-13.205-7.51-31.082-0.91-45.075c6.61-13.993,18.78-24.233,32.22-29.89
						c13.43-5.645,28.09-7.046,42.47-6.499c8.79,0.339,17.68,1.411,25.84,4.989c8.15,3.588,15.57,9.945,19.29,18.665
						c4.424,10.319,3.152,22.025,0.561,33.335c-1.193,5.211-0.273,10.717,2.567,15.098c3.392,5.232,6.319,10.761,8.371,16.773
						C322.603,157.629,321.894,174.259,312.804,184.608z"/>
				</g>
				<g style="opacity:0.7;">
					<path style="fill:#FFFFFF;" d="M312.804,184.608c-4.15,4.726-9.62,7.757-14.48,11.586c-4.85,3.84-9.38,9.07-10.1,15.569
						c-0.77,6.925,2.93,13.49,3.58,20.426c1.2,12.801-9.08,24.704-20.71,26.64c-11.63,1.926-23.46-4.496-31.3-14.091
						c-4.12-5.055-7.42-11.17-8.21-17.899c-1.35-11.477,4.68-22.778,3.73-34.31c-1.07-13.019-10.66-23.172-20.45-30.688
						c-9.78-7.516-20.75-14.092-27.26-25.065c-7.84-13.205-7.51-31.082-0.91-45.075c6.61-13.993,18.78-24.233,32.22-29.89
						c13.43-5.645,28.09-7.046,42.47-6.499c8.79,0.339,17.68,1.411,25.84,4.989c8.15,3.588,15.57,9.945,19.29,18.665
						c4.424,10.319,3.152,22.025,0.561,33.335c-1.193,5.211-0.273,10.717,2.567,15.098c3.392,5.232,6.319,10.761,8.371,16.773
						C322.603,157.629,321.894,174.259,312.804,184.608z"/>
				</g>
			</g>
			<g>
				<circle style="fill:#407BFF;" cx="213.08" cy="105.197" r="27.159"/>
				<g style="opacity:0.9;">
					<path style="fill:#FFFFFF;" d="M216.716,79.996l3.424,2.054v3.269c0,0-2.598-0.354-3.424-1.771c0,0,0.708-0.299-1.299-1.497
						C213.41,80.852,213.882,79.397,216.716,79.996z"/>
					<path style="fill:#FFFFFF;" d="M214.826,105.983l-1.968,0.945c0,0-0.59,1.142-0.472,1.102c0.118-0.039-0.433,2.362-0.315,2.401
						c0.118,0.039-1.141,1.063-1.141,1.063l-0.59,1.456v1.693l2.844,3.857l2.076,1.181l-1.811,9.919l0.748,0.275l9.446-6.927
						l0.63-1.693l2.794-1.102l1.496-3.897l1.693-1.968c0,0,0.158-1.968,0-1.929c-0.158,0.039-0.905,0.315-0.905,0.315l-1.417-1.063
						c0,0-2.991-0.551-3.149-0.394c-0.158,0.157-0.628-1.831-0.628-1.831l-2.757-0.767l-2.873-1.889l-2.086,0.394L214.826,105.983z"
						/>
					<path style="fill:#FFFFFF;" d="M209.469,101.112h1.52l2.165,1.134l4.04,1.012l0.191,0.323l-4.005-0.064l0.742-0.463
						l-0.594-0.378l-1.614-0.039l0.197-0.197l-1.67-0.854c0,0-1.046-0.248-1.085-0.13l-0.433,0.054L209.469,101.112z"/>
					<polygon style="fill:#FFFFFF;" points="212.598,103.582 212.229,103.223 211.624,103.253 211.874,103.582 					"/>
					<path style="fill:#FFFFFF;" d="M222.147,79.996h-0.472l3.365,2.017l0.531,0.575l3.306,1.905l0.649,0.826l0.531,1.83
						l1.771,1.417l-0.827,0.59l1.889,2.362h0.65l0.236-0.945l-1.417-2.952l1.964,1.1C234.325,88.722,230.118,82.171,222.147,79.996z
						"/>
					<path style="fill:#FFFFFF;" d="M235.993,90.869h-0.512l-0.852-1.122l-0.91,2.48c0,0,0.562,2.893,0.606,3.07
						c0.044,0.177-0.252,0.59-0.252,0.59l0.252,3.188l0.655,1.122l0.501,2.716l2.226,3.07l1.798-2.581l0.295,0.632
						C239.8,104.035,240.097,97.481,235.993,90.869z"/>
					<polygon style="fill:#FFFFFF;" points="222.738,82.588 222.147,82.588 222.147,83.312 222.738,83.666 223.269,83.666 
						223.269,83.127 					"/>
					<polygon style="fill:#FFFFFF;" points="226.339,84.02 227.225,84.965 227.461,85.757 228.347,86.618 228.701,86.087 
						229.35,86.618 229.35,86.027 228.878,85.319 					"/>
					<path style="fill:#FFFFFF;" d="M220.14,90.278c0,0-4.133,1.535-5.668,2.48c-1.535,0.945-1.288,2.962-1.288,2.962l-2.49,1.406
						l0.59,2.716l-0.59,0.354l-0.945-2.244c0,0-3.306-0.472-4.688-0.236c-1.382,0.236-1.688,2.952-1.688,2.952l0.827,2.243
						l1.889,0.118l0.237-1.299l2.007,0.118l-1.299,2.48l2.361,0.354l0.231,1.742l2.367,1.8c0,0,0.472,0.59,0,0.826
						c-0.472,0.236-11.69-6.494-12.753-8.147c-1.063-1.653-2.421-6.2-1.358-9.388c0.864-2.59,2.466-4.984,2.976-6.551
						c-0.001-0.001-0.001-0.002,0-0.003c0.007-0.018,0.012-0.036,0.017-0.053c0.001-0.001,0-0.001,0-0.001
						c0.017-0.045,0.029-0.088,0.038-0.13c0.143-0.616-0.345-1.006-0.728-1.115c-0.413-0.118-1.181,0.354-1.181,0.354h-1.507
						l1.566-0.894l0.649-0.686l0.413-0.369l1.535-0.649l-0.059-0.472c1.653-0.945,2.893-1.094,2.893-1.094l-1.122,0.857h1.181
						l0.236,1.337h2.362c0,0-0.59-0.156,0.827-0.938c1.416-0.782,6.022-1.116,6.022-1.116l-1.417,2.054l3.07,1.733l-0.355,1.299
						l-2.114-0.59v-0.709l-1.309-0.795l-0.118,1.386l-0.472,0.59l-0.59-0.472l-1.665,1.653l2.963,2.887l0.472-3.714l4.251,0.944
						L220.14,90.278z"/>
				</g>
			</g>
			<g>
				<g>
					<path style="fill:#407BFF;" d="M305.263,149.89c-1.44-0.881-3.347-1.439-4.767-0.526c-1.529,0.983-1.713,3.107-1.736,4.925
						c-2.489-1.431-5.985-0.111-7.321,2.43c-1.337,2.541-0.698,5.831,1.122,8.051c1.82,2.221,4.628,3.463,7.466,3.895
						c2.797,0.426,4.858-0.151,6.432-2.512c1.132-1.697,2.692-2.49,3.889-4.01C313.297,158.4,308.452,151.84,305.263,149.89z"/>
					<path style="fill:#407BFF;" d="M295.475,150.474c0.27-0.276,0.447-0.645,0.503-1.046c0.952,1.877,2.153,3.573,3.251,5.358
						C298.852,154.452,295.212,150.743,295.475,150.474z"/>
					<path style="fill:#407BFF;" d="M296.811,149.43c0.052-0.956,0.314-1.882,0.574-2.798c0.66,0.785,1.32,1.621,1.564,2.611
						c0.243,0.987,0.027,2.068-0.575,2.866C297.246,153.602,296.775,150.099,296.811,149.43z"/>
				</g>
				<g>
					<path style="fill:#FFFFFF;" d="M293.645,157.174c-0.558,0.105-0.84,0.892-0.478,1.33c0.362,0.438,1.184,0.313,1.403-0.211
						s-0.265-1.195-0.831-1.156L293.645,157.174z"/>
				</g>
				<path style="fill:#FFFFFF;" d="M300.073,166.748c0.138,0.011,0.288,0.015,0.402-0.063c0.216-0.149,0.158-0.509-0.04-0.681
					c-0.198-0.172-0.474-0.214-0.731-0.268c-1.689-0.357-3.162-1.608-3.788-3.216c-0.159-0.408-0.268-0.84-0.491-1.218
					c-0.528-0.894-1.772-0.985-2.036,0.107c-0.201,0.834,0.826,2.007,1.307,2.562C296.048,165.531,298.005,166.585,300.073,166.748z
					"/>
			</g>
			<g>
				<g>
					<g>
						<g>
							<g>
								<g>
									<g>
										<g>
											<path style="fill:#407BFF;" d="M275.852,76.715c0,6.457,5.233,11.69,11.69,11.69c6.455,0,11.689-5.233,11.689-11.69
												c0-6.455-5.233-11.689-11.689-11.689C281.086,65.026,275.852,70.26,275.852,76.715z M285.588,68.057
												c-0.436,0.144-0.872,0.124-1.188-0.025c0.182,0.814-0.62,1.537-1.376,1.951c-0.98,0.537-2.085,0.755-2.297-0.119
												c-0.127-0.527,0.268-1.272,1.269-1.955c0.541-0.367,1.41-0.642,1.947-0.433c-0.081-0.483,0.358-1.028,1.037-1.252
												c0.726-0.242,1.451-0.025,1.619,0.48C286.767,67.212,286.314,67.816,285.588,68.057z M291.268,72.076
												c-0.477,0.761-1.481,0.99-2.242,0.511c-0.761-0.477-0.991-1.481-0.513-2.242c0.478-0.761,1.482-0.99,2.243-0.513
												C291.516,70.311,291.747,71.315,291.268,72.076z M285.8,85.409c0-0.689,0.558-1.247,1.247-1.247
												c0.69,0,1.247,0.559,1.247,1.247c0,0.689-0.557,1.247-1.247,1.247C286.358,86.656,285.8,86.098,285.8,85.409z
												 M285.47,81.123c0-0.789,0.64-1.431,1.431-1.431c0.021,0,0.041,0.002,0.061,0.002c-0.231-1.253-0.009-2.593,0.722-3.757
												c1.316-2.094,3.861-2.948,6.109-2.212c0.322-0.764,1.076-1.3,1.958-1.3c1.17,0,2.119,0.949,2.119,2.121
												c0,0.764-0.405,1.434-1.01,1.806c0.811,1.599,0.787,3.572-0.235,5.2c-0.72,1.147-1.809,1.922-3.015,2.267
												c0.094,0.16,0.147,0.347,0.147,0.546c0,0.598-0.483,1.082-1.081,1.082c-0.598,0-1.081-0.485-1.081-1.082
												c0-0.127,0.022-0.251,0.063-0.364c-0.795-0.075-1.588-0.333-2.311-0.786c-0.524-0.329-0.969-0.734-1.332-1.194
												c-0.262,0.325-0.664,0.533-1.114,0.533C286.11,82.554,285.47,81.914,285.47,81.123z M282.33,72.791
												c-0.052-0.588,0.384-1.108,0.974-1.159c0.253-0.02,0.493,0.047,0.687,0.177c0.036-0.802,0.664-1.473,1.486-1.544
												c0.894-0.077,1.683,0.587,1.76,1.481c0.077,0.896-0.585,1.683-1.481,1.76c-0.518,0.046-1.001-0.158-1.33-0.511
												c-0.119,0.413-0.483,0.731-0.938,0.77C282.899,73.817,282.38,73.381,282.33,72.791z M280.783,82.607
												c0-0.449,0.362-0.811,0.811-0.811c0.447,0,0.811,0.362,0.811,0.811c0,0.447-0.364,0.811-0.811,0.811
												C281.145,83.418,280.783,83.054,280.783,82.607z M279.205,73.466c-0.05-0.59,0.386-1.108,0.974-1.159
												c0.59-0.05,1.109,0.386,1.159,0.974c0.052,0.59-0.384,1.108-0.974,1.159C279.776,74.49,279.256,74.054,279.205,73.466z"
												/>
										</g>
									</g>
								</g>
							</g>
							<g>
								<g>
									<g>
										<g>
											<path style="fill:#407BFF;" d="M275.852,76.715c0,6.457,5.233,11.69,11.69,11.69c6.455,0,11.689-5.233,11.689-11.69
												c0-6.455-5.233-11.689-11.689-11.689C281.086,65.026,275.852,70.26,275.852,76.715z M285.588,68.057
												c-0.436,0.144-0.872,0.124-1.188-0.025c0.182,0.814-0.62,1.537-1.376,1.951c-0.98,0.537-2.085,0.755-2.297-0.119
												c-0.127-0.527,0.268-1.272,1.269-1.955c0.541-0.367,1.41-0.642,1.947-0.433c-0.081-0.483,0.358-1.028,1.037-1.252
												c0.726-0.242,1.451-0.025,1.619,0.48C286.767,67.212,286.314,67.816,285.588,68.057z M291.268,72.076
												c-0.477,0.761-1.481,0.99-2.242,0.511c-0.761-0.477-0.991-1.481-0.513-2.242c0.478-0.761,1.482-0.99,2.243-0.513
												C291.516,70.311,291.747,71.315,291.268,72.076z M285.8,85.409c0-0.689,0.558-1.247,1.247-1.247
												c0.69,0,1.247,0.559,1.247,1.247c0,0.689-0.557,1.247-1.247,1.247C286.358,86.656,285.8,86.098,285.8,85.409z
												 M285.47,81.123c0-0.789,0.64-1.431,1.431-1.431c0.021,0,0.041,0.002,0.061,0.002c-0.231-1.253-0.009-2.593,0.722-3.757
												c1.316-2.094,3.861-2.948,6.109-2.212c0.322-0.764,1.076-1.3,1.958-1.3c1.17,0,2.119,0.949,2.119,2.121
												c0,0.764-0.405,1.434-1.01,1.806c0.811,1.599,0.787,3.572-0.235,5.2c-0.72,1.147-1.809,1.922-3.015,2.267
												c0.094,0.16,0.147,0.347,0.147,0.546c0,0.598-0.483,1.082-1.081,1.082c-0.598,0-1.081-0.485-1.081-1.082
												c0-0.127,0.022-0.251,0.063-0.364c-0.795-0.075-1.588-0.333-2.311-0.786c-0.524-0.329-0.969-0.734-1.332-1.194
												c-0.262,0.325-0.664,0.533-1.114,0.533C286.11,82.554,285.47,81.914,285.47,81.123z M282.33,72.791
												c-0.052-0.588,0.384-1.108,0.974-1.159c0.253-0.02,0.493,0.047,0.687,0.177c0.036-0.802,0.664-1.473,1.486-1.544
												c0.894-0.077,1.683,0.587,1.76,1.481c0.077,0.896-0.585,1.683-1.481,1.76c-0.518,0.046-1.001-0.158-1.33-0.511
												c-0.119,0.413-0.483,0.731-0.938,0.77C282.899,73.817,282.38,73.381,282.33,72.791z M280.783,82.607
												c0-0.449,0.362-0.811,0.811-0.811c0.447,0,0.811,0.362,0.811,0.811c0,0.447-0.364,0.811-0.811,0.811
												C281.145,83.418,280.783,83.054,280.783,82.607z M279.205,73.466c-0.05-0.59,0.386-1.108,0.974-1.159
												c0.59-0.05,1.109,0.386,1.159,0.974c0.052,0.59-0.384,1.108-0.974,1.159C279.776,74.49,279.256,74.054,279.205,73.466z"
												/>
										</g>
									</g>
								</g>
							</g>
							<g>
								<g>
									<g>
										<g>
											<g>
												<path style="fill:#E6E6E6;" d="M280.783,82.607c0,0.447,0.362,0.811,0.811,0.811c0.447,0,0.811-0.364,0.811-0.811
													c0-0.449-0.364-0.811-0.811-0.811C281.145,81.796,280.783,82.159,280.783,82.607z"/>
											</g>
										</g>
									</g>
									<g>
										<g>
											<g>
												<path style="fill:#407BFF;" d="M280.665,82.607c0-0.512,0.417-0.929,0.929-0.929c0.512,0,0.929,0.417,0.929,0.929
													c0,0.512-0.417,0.929-0.929,0.929C281.082,83.536,280.665,83.119,280.665,82.607z"/>
											</g>
										</g>
									</g>
								</g>
								<g>
									<g>
										<g>
											<g>
												<path style="fill:#407BFF;" d="M285.682,85.409c0-0.752,0.612-1.365,1.365-1.365c0.753,0,1.365,0.612,1.365,1.365
													c0,0.753-0.612,1.365-1.365,1.365C286.294,86.774,285.682,86.161,285.682,85.409z"/>
											</g>
										</g>
									</g>
								</g>
								<g>
									<g>
										<g>
											<g>
												<path style="fill:#407BFF;" d="M288.964,72.687c-0.395-0.248-0.67-0.634-0.774-1.089
													c-0.104-0.454-0.024-0.921,0.223-1.315c0.512-0.814,1.591-1.061,2.406-0.55c0.814,0.513,1.06,1.592,0.548,2.405
													c-0.247,0.394-0.633,0.669-1.087,0.772c-0.13,0.03-0.261,0.044-0.392,0.044
													C289.565,72.955,289.246,72.864,288.964,72.687z"/>
											</g>
										</g>
									</g>
								</g>
								<g>
									<g>
										<g>
											<g>
												<path style="fill:#407BFF;" d="M282.631,73.609c-0.243-0.204-0.392-0.491-0.419-0.808
													c-0.028-0.316,0.069-0.624,0.273-0.867c0.204-0.243,0.491-0.392,0.808-0.42c0.206-0.016,0.412,0.02,0.597,0.105
													c0.12-0.784,0.768-1.402,1.575-1.471c0.959-0.083,1.805,0.63,1.888,1.588c0.082,0.958-0.63,1.805-1.588,1.887
													c-0.476,0.042-0.938-0.11-1.294-0.42c-0.179,0.378-0.551,0.643-0.974,0.679c-0.035,0.003-0.07,0.005-0.106,0.005
													C283.114,73.888,282.847,73.791,282.631,73.609z"/>
											</g>
										</g>
									</g>
								</g>
								<g>
									<g>
										<g>
											<g>
												<path style="fill:#407BFF;" d="M279.087,73.476C279.087,73.476,279.087,73.476,279.087,73.476
													c-0.056-0.652,0.43-1.23,1.082-1.287c0.654-0.056,1.231,0.43,1.286,1.081c0.057,0.652-0.428,1.229-1.081,1.287
													c-0.034,0.003-0.068,0.004-0.102,0.004C279.663,74.562,279.142,74.094,279.087,73.476z M279.203,73.466h0.002H279.203z"
													/>
											</g>
										</g>
									</g>
								</g>
								<g style="opacity:0.1;">
									<g>
										<g>
											<g>
												<path style="fill:#FFFFFF;" d="M281.249,80.929c0.013,0,0.025-0.002,0.038-0.006c0.061-0.021,0.094-0.088,0.073-0.149
													c-0.651-1.911-0.141-5.747-0.136-5.785c0.009-0.064-0.036-0.124-0.101-0.132c-0.064-0.008-0.124,0.036-0.132,0.101
													c-0.022,0.16-0.522,3.929,0.147,5.893C281.154,80.898,281.2,80.929,281.249,80.929z"/>
											</g>
										</g>
									</g>
								</g>
								<g>
									<g>
										<g>
											<g>
												<path style="opacity:0.1;fill:#FFFFFF;" d="M279.929,81.989c0.035,0,0.07-0.016,0.093-0.046
													c0.04-0.051,0.03-0.125-0.021-0.165c-0.866-0.674-1.471-1.593-1.85-2.81c-0.019-0.062-0.085-0.097-0.147-0.077
													c-0.062,0.019-0.097,0.085-0.078,0.147c0.393,1.265,1.024,2.222,1.93,2.925
													C279.878,81.981,279.904,81.989,279.929,81.989z"/>
											</g>
										</g>
									</g>
								</g>
								<g>
									<g>
										<g>
											<g>
												<path style="opacity:0.1;fill:#FFFFFF;" d="M284.946,83.637c0.063,0,0.115-0.05,0.117-0.114
													c0.002-0.065-0.049-0.119-0.114-0.121c-0.686-0.022-1.288-0.164-1.673-0.279c-0.062-0.019-0.128,0.017-0.147,0.079
													c-0.019,0.062,0.017,0.128,0.079,0.146c0.398,0.119,1.022,0.266,1.733,0.289
													C284.943,83.637,284.944,83.637,284.946,83.637z"/>
											</g>
										</g>
									</g>
								</g>
								<g>
									<g>
										<g>
											<g>
												<path style="opacity:0.1;fill:#FFFFFF;" d="M280.74,85.672c0.052,0,0.099-0.035,0.113-0.087l0.399-1.467
													c0.017-0.063-0.02-0.127-0.083-0.144c-0.062-0.017-0.127,0.02-0.144,0.082l-0.399,1.467
													c-0.017,0.063,0.02,0.127,0.083,0.144C280.719,85.671,280.73,85.672,280.74,85.672z"/>
											</g>
										</g>
									</g>
								</g>
								<g>
									<g>
										<g>
											<g>
												<path style="opacity:0.1;fill:#FFFFFF;" d="M278.23,83.651c0.003,0,0.006,0,0.009,0
													c0.828-0.066,1.395-0.285,1.724-0.458c0.058-0.03,0.08-0.101,0.05-0.159c-0.03-0.057-0.102-0.08-0.159-0.05
													c-0.31,0.162-0.845,0.369-1.634,0.431c-0.065,0.005-0.113,0.062-0.108,0.127
													C278.118,83.604,278.17,83.651,278.23,83.651z"/>
											</g>
										</g>
									</g>
								</g>
								<g>
									<g>
										<g>
											<g>
												<path style="opacity:0.1;fill:#FFFFFF;" d="M282.699,81.414c0.044,0,0.087-0.025,0.107-0.068
													c0.46-0.991,2.169-4.362,2.186-4.396c0.029-0.058,0.006-0.129-0.052-0.158c-0.058-0.029-0.129-0.006-0.158,0.052
													c-0.017,0.034-1.728,3.409-2.19,4.403c-0.027,0.059-0.002,0.129,0.057,0.156
													C282.666,81.41,282.683,81.414,282.699,81.414z"/>
											</g>
										</g>
									</g>
								</g>
								<g>
									<g>
										<g>
											<g>
												<path style="opacity:0.1;fill:#FFFFFF;" d="M284.921,86.742c0.041,0,0.081-0.022,0.103-0.06
													c0.032-0.057,0.011-0.128-0.045-0.16c-1.422-0.794-2.261-2.073-2.555-2.587c-0.032-0.057-0.104-0.076-0.161-0.043
													c-0.056,0.032-0.076,0.104-0.043,0.161c0.304,0.53,1.171,1.852,2.645,2.675
													C284.882,86.737,284.901,86.742,284.921,86.742z"/>
											</g>
										</g>
									</g>
								</g>
								<g>
									<g>
										<g>
											<g>
												<path style="fill:#407BFF;" d="M281.083,70.484c-0.242-0.107-0.4-0.306-0.47-0.592v0
													c-0.151-0.626,0.354-1.423,1.318-2.08c0.513-0.348,1.312-0.616,1.886-0.495c0.025-0.493,0.477-0.99,1.126-1.204
													c0.374-0.124,0.76-0.139,1.09-0.041c0.344,0.102,0.585,0.314,0.678,0.596c0.188,0.566-0.3,1.239-1.087,1.501
													c-0.375,0.124-0.758,0.138-1.082,0.043c0.049,0.966-1.091,1.672-1.462,1.875c-0.303,0.166-0.961,0.485-1.537,0.485
													C281.38,70.572,281.223,70.546,281.083,70.484z M280.726,69.864h0.002H280.726z"/>
											</g>
										</g>
									</g>
								</g>
							</g>
							<g>
								<path style="fill:#407BFF;" d="M291.477,84.364c0-0.089,0.01-0.177,0.029-0.262c-0.784-0.095-1.549-0.366-2.221-0.788
									c-0.485-0.305-0.913-0.678-1.273-1.112c-0.291,0.3-0.688,0.469-1.11,0.469c-0.854,0-1.548-0.695-1.548-1.548
									c0-0.828,0.652-1.506,1.47-1.546c-0.044-0.279-0.066-0.559-0.066-0.838c0-1.006,0.283-1.997,0.827-2.864
									c1.302-2.072,3.816-3.005,6.144-2.293c0.372-0.778,1.154-1.274,2.022-1.274c1.233,0,2.237,1.004,2.237,2.239
									c0,0.747-0.363,1.43-0.976,1.847c0.357,0.74,0.534,1.545,0.534,2.348c0,1.003-0.276,2.004-0.822,2.873
									c-0.684,1.088-1.726,1.893-2.947,2.276c0.064,0.148,0.097,0.31,0.097,0.474c0,0.662-0.538,1.2-1.199,1.2
									C292.014,85.564,291.477,85.026,291.477,84.364z"/>
							</g>
						</g>
						<g style="opacity:0.1;">
							<path d="M291.477,84.364c0-0.089,0.01-0.177,0.029-0.262c-0.784-0.095-1.549-0.366-2.221-0.788
								c-0.485-0.305-0.913-0.678-1.273-1.112c-0.291,0.3-0.688,0.469-1.11,0.469c-0.854,0-1.548-0.695-1.548-1.548
								c0-0.828,0.652-1.506,1.47-1.546c-0.044-0.279-0.066-0.559-0.066-0.838c0-1.006,0.283-1.997,0.827-2.864
								c1.302-2.072,3.816-3.005,6.144-2.293c0.372-0.778,1.154-1.274,2.022-1.274c1.233,0,2.237,1.004,2.237,2.239
								c0,0.747-0.363,1.43-0.976,1.847c0.357,0.74,0.534,1.545,0.534,2.348c0,1.003-0.276,2.004-0.822,2.873
								c-0.684,1.088-1.726,1.893-2.947,2.276c0.064,0.148,0.097,0.31,0.097,0.474c0,0.662-0.538,1.2-1.199,1.2
								C292.014,85.564,291.477,85.026,291.477,84.364z"/>
						</g>
					</g>
					<path style="opacity:0.1;fill:#FFFFFF;" d="M291.762,78.992c-0.152-0.1-0.257-0.253-0.293-0.432
						c-0.077-0.368,0.161-0.731,0.531-0.809c0.178-0.036,0.361-0.002,0.513,0.098c0.153,0.1,0.257,0.254,0.293,0.432
						c0.038,0.179,0.003,0.361-0.097,0.514c-0.1,0.153-0.255,0.257-0.433,0.294c-0.047,0.01-0.095,0.015-0.142,0.015
						C292.003,79.104,291.874,79.066,291.762,78.992z"/>
				</g>
				<g style="opacity:0.1;">
					<g>
						<g>
							<g>
								<g>
									<path d="M280.783,82.544c0,0.447,0.362,0.811,0.811,0.811c0.447,0,0.811-0.364,0.811-0.811
										c0-0.449-0.364-0.811-0.811-0.811C281.145,81.733,280.783,82.095,280.783,82.544z"/>
								</g>
							</g>
						</g>
						<g>
							<g>
								<g>
									<path d="M280.665,82.544c0-0.512,0.417-0.929,0.929-0.929c0.512,0,0.929,0.416,0.929,0.929
										c0,0.512-0.417,0.929-0.929,0.929C281.082,83.473,280.665,83.056,280.665,82.544z"/>
								</g>
							</g>
						</g>
					</g>
					<g>
						<g>
							<g>
								<g>
									<path d="M285.682,85.346c0-0.753,0.612-1.365,1.365-1.365c0.753,0,1.365,0.612,1.365,1.365
										c0,0.753-0.612,1.365-1.365,1.365C286.294,86.711,285.682,86.098,285.682,85.346z"/>
								</g>
							</g>
						</g>
					</g>
					<g>
						<g>
							<g>
								<g>
									<path d="M288.964,72.624c-0.395-0.248-0.67-0.634-0.774-1.089c-0.104-0.454-0.024-0.921,0.223-1.315
										c0.512-0.814,1.591-1.061,2.406-0.55c0.814,0.513,1.06,1.592,0.548,2.405c-0.247,0.394-0.633,0.669-1.087,0.772
										c-0.13,0.03-0.261,0.044-0.392,0.044C289.565,72.892,289.246,72.801,288.964,72.624z"/>
								</g>
							</g>
						</g>
					</g>
					<g>
						<g>
							<g>
								<g>
									<path d="M282.631,73.546c-0.243-0.204-0.392-0.491-0.419-0.808c-0.028-0.316,0.069-0.624,0.273-0.867
										c0.204-0.243,0.491-0.392,0.808-0.42c0.206-0.016,0.412,0.02,0.597,0.105c0.12-0.784,0.768-1.402,1.575-1.471
										c0.959-0.083,1.805,0.63,1.888,1.588c0.082,0.959-0.63,1.805-1.588,1.887c-0.476,0.042-0.938-0.11-1.294-0.42
										c-0.179,0.378-0.551,0.643-0.974,0.679c-0.035,0.003-0.07,0.005-0.106,0.005C283.114,73.824,282.847,73.727,282.631,73.546
										z"/>
								</g>
							</g>
						</g>
					</g>
					<g>
						<g>
							<g>
								<g>
									<path d="M279.087,73.413C279.087,73.413,279.087,73.413,279.087,73.413c-0.056-0.652,0.43-1.229,1.082-1.287
										c0.654-0.056,1.231,0.43,1.286,1.081c0.057,0.652-0.428,1.229-1.081,1.287c-0.034,0.003-0.068,0.004-0.102,0.004
										C279.663,74.499,279.142,74.031,279.087,73.413z M279.203,73.403h0.002H279.203z"/>
								</g>
							</g>
						</g>
					</g>
					<g>
						<g>
							<g>
								<g>
									<path d="M281.083,70.421c-0.242-0.107-0.4-0.306-0.47-0.592v0c-0.151-0.626,0.354-1.423,1.318-2.08
										c0.513-0.348,1.312-0.616,1.886-0.495c0.025-0.493,0.477-0.989,1.126-1.204c0.374-0.124,0.76-0.139,1.09-0.041
										c0.344,0.102,0.585,0.314,0.678,0.596c0.188,0.566-0.3,1.239-1.087,1.501c-0.375,0.124-0.758,0.138-1.082,0.043
										c0.049,0.966-1.091,1.672-1.462,1.875c-0.303,0.166-0.961,0.485-1.537,0.485C281.38,70.508,281.223,70.483,281.083,70.421z
										 M280.726,69.801h0.002H280.726z"/>
								</g>
							</g>
						</g>
					</g>
				</g>
			</g>
			<g>
				<g>
					<polygon style="fill:#407BFF;" points="262.29,149.835 260.224,141.008 261.392,140.734 262.668,146.186 267.94,134.881 
						288.429,137.75 288.263,138.939 268.653,136.193 					"/>
				</g>
			</g>
			<g>
				<path style="fill:#FFFFFF;" d="M228.045,143.374l-1.604,1.234l3.191,2.799l-1.331,1.022l-3.2-2.808l-1.71,1.315l3.75,3.29
					l-1.385,1.044l-5.321-4.669l7.404-5.666l5.193,4.557l-1.385,1.043L228.045,143.374z"/>
				<path style="fill:#FFFFFF;" d="M232.631,152.316l4.673,4.1l-1.286,0.991l-4.673-4.1L232.631,152.316z M235.249,150.322
					l4.673,4.1l-1.288,0.973l-4.673-4.1L235.249,150.322z"/>
				<path style="fill:#FFFFFF;" d="M251.068,167.154c-0.181,0.206-0.382,0.395-0.637,0.588l-3.146,2.417l-1.531-1.343l3.031-2.326
					c0.159-0.122,0.28-0.241,0.392-0.368c0.465-0.53,0.43-1.065-0.119-1.547c-0.707-0.62-1.559-0.639-2.547,0.111l-2.917,2.236
					l-1.531-1.344l3.031-2.326c0.159-0.121,0.281-0.24,0.384-0.358c0.474-0.54,0.438-1.075-0.111-1.557
					c-0.717-0.629-1.559-0.639-2.574,0.122l-2.891,2.224l-1.531-1.343l5.685-4.36l1.453,1.275l-0.6,0.446
					c0.832-0.017,1.592,0.285,2.21,0.827c0.727,0.637,1.067,1.457,0.862,2.285c1.002-0.111,1.956,0.187,2.771,0.902
					C251.879,164.705,252.093,165.986,251.068,167.154z"/>
				<path style="fill:#FFFFFF;" d="M250.837,169.229c1.542-1.757,4.031-1.901,5.916-0.247c1.129,0.991,1.551,2.212,1.204,3.419
					l-1.864-0.489c0.195-0.698-0.01-1.277-0.549-1.75c-0.903-0.793-2.191-0.671-3.087,0.35c-0.629,0.717-0.592,1.566,0.194,2.255
					c0.53,0.465,1.171,0.645,1.916,0.43l0.508,1.697c-1.208,0.348-2.544,0.009-3.624-0.939
					C249.812,172.516,249.589,170.652,250.837,169.229z"/>
				<path style="fill:#FFFFFF;" d="M260.178,174.332l1.806,1.585l-0.88,0.687l-3.426-3.007l0.705-0.546l3.251,0.334
					c0.773,0.07,1.092,0.003,1.308-0.242c0.233-0.265,0.163-0.622-0.279-1.009c-0.402-0.353-0.864-0.481-1.334-0.441l-0.228-1.086
					c0.76-0.133,1.663,0.104,2.508,0.845c0.962,0.844,1.157,1.849,0.554,2.536c-0.396,0.452-0.818,0.655-2.29,0.511L260.178,174.332
					z"/>
			</g>
			<g>
				<g>
					<path style="fill:#407BFF;" d="M274.281,197.733l-12.84-8.154l26.968-14.094L274.281,197.733z M263.439,189.662l10.535,6.69
						l11.591-18.253L263.439,189.662z"/>
				</g>
				<g>
					<path style="fill:#407BFF;" d="M274.281,197.733l-5.691-3.613l0.246-0.417c1.386-2.352,4.203-3.487,6.845-2.765
						c0.64,0.176,1.249,0.458,1.811,0.836l0.403,0.272L274.281,197.733z M269.961,193.806l4.012,2.546l2.543-4.002
						c-0.351-0.193-0.72-0.343-1.101-0.448C273.362,191.342,271.188,192.118,269.961,193.806z"/>
				</g>
			</g>
			<g>
				<path style="fill:#407BFF;" d="M256.814,231.352c-1.568,0.236-3.184-0.333-4.445-1.294c-1.261-0.961-2.201-2.285-2.967-3.673
					c-0.765-1.388-1.383-2.894-1.487-4.476c-0.104-1.582,0.362-3.254,1.502-4.355c1.107-1.07,2.724-1.488,4.261-1.42
					c2.759,0.122,5.402,1.773,6.723,4.199c1.093,2.008,1.25,4.488,0.48,6.634C260.155,228.991,259.169,230.997,256.814,231.352z"/>
				<g>
					<path style="fill:#407BFF;" d="M261.159,207.569c6.204,0.258,11.646,6.045,11.524,12.252c-0.042,2.131-0.641,4.321,0.009,6.351
						c0.415,1.295,1.331,2.508,1.177,3.859c-0.203,1.778-2.092,2.78-3.74,3.477c-1.556,0.658-3.158,1.326-4.846,1.37
						c-1.689,0.044-3.508-0.678-4.281-2.18c-0.385-0.747-1.774-3.922-2.614-3.902c-0.932,0.022-3.556,1.851-4.555,0.302
						c-0.611-0.947-1.194-0.825-0.245-1.434c-1.435,0.125,0.154,3.203-1.217,2.395c-3.854-2.271-5.246-7.993-5.497-9.932
						c-0.437-3.368,1.426-6.731,4.105-8.818C255.948,207.436,261.159,207.569,261.159,207.569z"/>
				</g>
				<g style="opacity:0.9;">
					<path style="fill:#FFFFFF;" d="M261.159,207.569c6.204,0.258,11.646,6.045,11.524,12.252c-0.042,2.131-0.641,4.321,0.009,6.351
						c0.415,1.295,1.331,2.508,1.177,3.859c-0.203,1.778-2.092,2.78-3.74,3.477c-1.556,0.658-3.158,1.326-4.846,1.37
						c-1.689,0.044-3.508-0.678-4.281-2.18c-0.385-0.747-1.774-3.922-2.614-3.902c-0.932,0.022-3.556,1.851-4.555,0.302
						c-0.611-0.947-1.194-0.825-0.245-1.434c-1.435,0.125,0.154,3.203-1.217,2.395c-3.854-2.271-5.246-7.993-5.497-9.932
						c-0.437-3.368,1.426-6.731,4.105-8.818C255.948,207.436,261.159,207.569,261.159,207.569z"/>
				</g>
				<path style="fill:#407BFF;" d="M261.871,217.576c0.44,1.296,0.152,2.761-0.529,3.947c-0.679,1.182-1.853,2.185-3.215,2.237
					c-1.331,0.051-2.599-0.87-3.113-2.098c-0.514-1.228-0.325-2.687,0.343-3.839c0.605-1.042,2.007-2.488,3.288-2.633
					C260.033,215.033,261.457,216.355,261.871,217.576z"/>
				<path style="fill:#407BFF;" d="M264.087,216.417c0.119,1.217,0.893,2.304,1.885,3.019c0.988,0.712,2.313,1.096,3.441,0.637
					c1.102-0.449,1.796-1.665,1.762-2.855c-0.034-1.189-0.725-2.308-1.693-2.999c-0.876-0.626-2.55-1.287-3.647-0.933
					C264.647,213.669,263.975,215.27,264.087,216.417z"/>
				<path style="fill:#407BFF;" d="M266.749,221.468c0.364,0.199,0.753,0.425,0.913,0.807c0.244,0.583-0.23,1.298-0.849,1.427
					c-0.619,0.129-1.266-0.226-1.628-0.745c-0.03,0.417-0.157,0.849-0.461,1.136c-0.304,0.287-0.816,0.378-1.145,0.12
					c-0.267-0.209-0.352-0.588-0.296-0.922c0.055-0.334,0.226-0.637,0.395-0.931c0.232-0.406,0.744-1.777,1.213-1.87
					C265.301,220.408,266.378,221.268,266.749,221.468z"/>
				<path style="fill:#407BFF;" d="M271.463,225.855c-0.057,0.326,0.331,0.798,0.274,1.127c0,0-0.767,0.66-1.268,0.87
					c-2.577,1.081-3.757,1.709-7.935,2.701c-0.322-0.826-0.971-1.525-1.787-1.924c0.897-0.043,1.767,0.583,1.973,1.42
					c3.007-0.607,5.919-1.69,8.582-3.194c-0.116-0.602-0.413-1.689,0.566-1.846C271.868,225.009,271.615,224.987,271.463,225.855z"
					/>
			</g>
			<g>
				<polygon style="fill:#F0F0F0;" points="263.595,123.708 259.513,122.449 258.836,120.618 265.185,122.575 				"/>
				<g>
					<g>
						<g>
							<path style="fill:#407BFF;" d="M275.187,108.405c-0.767,2.457-2.527,4.339-4.7,5.331c-1.496,0.681-2.666,1.913-3.151,3.487
								l-0.195,0.632l-7.261-2.239l0.195-0.632c0.484-1.569,0.213-3.25-0.637-4.65c-1.244-2.051-1.64-4.607-0.876-7.083
								c1.462-4.741,6.599-7.333,11.315-5.609C274.189,99.217,276.549,104.018,275.187,108.405z"/>
							<path style="opacity:0.9;fill:#FFFFFF;" d="M275.187,108.405c-0.767,2.457-2.527,4.339-4.7,5.331
								c-1.496,0.681-2.666,1.913-3.151,3.487l-0.195,0.632l-7.261-2.239l0.195-0.632c0.484-1.569,0.213-3.25-0.637-4.65
								c-1.244-2.051-1.64-4.607-0.876-7.083c1.462-4.741,6.599-7.333,11.315-5.609C274.189,99.217,276.549,104.018,275.187,108.405
								z"/>
							<g>
								<g>
									
										<rect x="258.029" y="111.262" transform="matrix(0.0976 -0.9952 0.9952 0.0976 125.981 361.9852)" style="fill:#407BFF;" width="9.135" height="0.525"/>
								</g>
								<g>
									
										<rect x="262.632" y="112.681" transform="matrix(0.4791 -0.8778 0.8778 0.4791 40.0512 293.3748)" style="fill:#407BFF;" width="9.135" height="0.525"/>
								</g>
								<g>
									<polygon style="fill:#407BFF;" points="266.078,111.989 265.632,109.855 264.061,111.366 262.841,108.608 263.322,108.396 
										264.238,110.469 265.952,108.82 266.438,111.147 268.362,109.95 268.639,110.396 									"/>
								</g>
							</g>
							<polygon style="fill:#407BFF;" points="267.212,117.631 265.828,122.117 258.556,119.907 259.94,115.421 							"/>
							<g>
								
									<rect x="261.841" y="117.496" transform="matrix(0.289 -0.9573 0.9573 0.289 70.2376 337.1624)" style="fill:#407BFF;" width="0.525" height="7.6"/>
							</g>
							<g>
								
									<rect x="263.311" y="112.729" transform="matrix(0.2889 -0.9573 0.9573 0.2889 75.8575 335.1909)" style="fill:#407BFF;" width="0.525" height="7.6"/>
							</g>
							<g style="opacity:0.2;">
								
									<rect x="263.311" y="112.729" transform="matrix(0.2889 -0.9573 0.9573 0.2889 75.8575 335.1909)" width="0.525" height="7.6"/>
							</g>
							<g style="opacity:0.2;">
								
									<rect x="261.841" y="117.496" transform="matrix(0.289 -0.9573 0.9573 0.289 70.2376 337.1624)" width="0.525" height="7.6"/>
							</g>
						</g>
					</g>
				</g>
			</g>
		</g>
	</g>
</g>
<g id="Sheets">
	<g>
		<g>
			<g>
				<g>
					
						<rect x="113.807" y="374.865" transform="matrix(-1 -1.224647e-16 1.224647e-16 -1 276.5229 761.8911)" style="fill:#407BFF;" width="48.908" height="12.161"/>
					
						<rect x="113.966" y="374.918" transform="matrix(-1 -1.224647e-16 1.224647e-16 -1 276.8401 761.9969)" style="opacity:0.6;fill:#FFFFFF;enable-background:new    ;" width="48.908" height="12.161"/>
					
						<rect x="113.807" y="374.918" transform="matrix(-1 -1.224647e-16 1.224647e-16 -1 265.155 761.9969)" style="opacity:0.6;fill:#FFFFFF;enable-background:new    ;" width="37.54" height="12.161"/>
					<polygon style="fill:#407BFF;enable-background:new    ;" points="114.045,385.479 162.717,386.99 162.663,385.757 
						114.019,385.123 					"/>
					<polygon style="fill:#407BFF;enable-background:new    ;" points="162.717,379.855 114.121,377.122 114.121,377.532 
						162.717,380.78 					"/>
					<polygon style="fill:#407BFF;enable-background:new    ;" points="162.717,376.182 114.121,377.295 114.121,377.695 
						162.717,377.108 					"/>
					<polygon style="fill:#407BFF;enable-background:new    ;" points="162.854,382.243 114.249,384.611 114.249,384.255 
						162.854,381.434 					"/>
				</g>
				<polygon style="fill:#407BFF;enable-background:new    ;" points="113.927,375.024 162.523,375.064 162.523,375.464 
					113.927,375.464 				"/>
			</g>
			<g>
				
					<rect x="117.315" y="338.647" transform="matrix(-1 -1.224647e-16 1.224647e-16 -1 283.5375 689.4543)" style="fill:#407BFF;" width="48.908" height="12.161"/>
				
					<rect x="117.473" y="338.7" transform="matrix(-1 -1.224647e-16 1.224647e-16 -1 283.8547 689.5601)" style="opacity:0.6;fill:#FFFFFF;enable-background:new    ;" width="48.908" height="12.161"/>
				
					<rect x="117.315" y="338.7" transform="matrix(-1 -1.224647e-16 1.224647e-16 -1 272.1696 689.5601)" style="opacity:0.6;fill:#FFFFFF;enable-background:new    ;" width="37.54" height="12.161"/>
				<polygon style="fill:#407BFF;enable-background:new    ;" points="117.553,349.261 166.224,350.772 166.17,349.539 
					117.526,348.904 				"/>
				<polygon style="fill:#407BFF;enable-background:new    ;" points="166.224,343.636 117.628,340.904 117.628,341.313 
					166.224,344.562 				"/>
				<polygon style="fill:#407BFF;enable-background:new    ;" points="166.224,339.964 117.628,341.076 117.628,341.477 
					166.224,340.889 				"/>
				<polygon style="fill:#407BFF;enable-background:new    ;" points="166.361,346.025 117.756,348.393 117.756,348.037 
					166.361,345.215 				"/>
			</g>
			<g>
				
					<rect x="116.707" y="362.537" transform="matrix(-1 -1.224647e-16 1.224647e-16 -1 282.3213 737.2345)" style="fill:#407BFF;" width="48.908" height="12.161"/>
				
					<rect x="116.865" y="362.59" transform="matrix(-1 -1.224647e-16 1.224647e-16 -1 282.6385 737.3402)" style="opacity:0.6;fill:#FFFFFF;enable-background:new    ;" width="48.908" height="12.161"/>
				<rect x="116.814" y="362.59" style="opacity:0.6;fill:#FFFFFF;enable-background:new    ;" width="37.54" height="12.161"/>
				<polygon style="fill:#407BFF;enable-background:new    ;" points="165.405,372.794 116.761,373.429 116.707,374.662 
					165.378,373.151 				"/>
				<polygon style="fill:#407BFF;enable-background:new    ;" points="117.02,362.695 165.616,362.735 165.616,363.136 
					117.02,363.136 				"/>
				<polygon style="fill:#407BFF;enable-background:new    ;" points="116.707,368.452 165.303,365.203 165.303,364.794 
					116.707,367.526 				"/>
				<polygon style="fill:#407BFF;enable-background:new    ;" points="165.616,363.854 117.02,364.966 117.02,365.367 
					165.616,364.779 				"/>
				<polygon style="fill:#407BFF;enable-background:new    ;" points="165.753,369.915 117.148,372.283 117.148,371.927 
					165.753,369.105 				"/>
			</g>
			<g>
				<polygon style="fill:#407BFF;" points="163.923,351.072 115.035,351.318 114.963,363.233 163.923,363.233 				"/>
				
					<rect x="115.015" y="351.072" transform="matrix(-1 -1.224647e-16 1.224647e-16 -1 278.9373 714.3049)" style="opacity:0.6;fill:#FFFFFF;enable-background:new    ;" width="48.908" height="12.161"/>
				<rect x="114.963" y="351.072" style="opacity:0.6;fill:#FFFFFF;enable-background:new    ;" width="37.54" height="12.161"/>
				<polygon style="fill:#407BFF;enable-background:new    ;" points="153.974,351.318 115.035,351.318 115.035,352.555 
					153.137,352.555 				"/>
				<polygon style="fill:#407BFF;enable-background:new    ;" points="163.64,356.3 115.035,356.754 115.035,357.11 163.64,357.11 
									"/>
				<polygon style="fill:#407BFF;enable-background:new    ;" points="115.035,361.926 163.64,359.559 163.64,359.915 
					115.035,362.736 				"/>
				<polygon style="fill:#407BFF;enable-background:new    ;" points="115.035,357.354 163.64,358.324 163.64,358.671 
					115.035,358.164 				"/>
			</g>
			<g>
				<rect x="127.812" y="324.619" style="fill:#407BFF;" width="48.596" height="6.123"/>
				<rect x="127.812" y="324.619" style="opacity:0.6;fill:#FFFFFF;enable-background:new    ;" width="48.596" height="6.123"/>
				<rect x="127.812" y="324.619" style="opacity:0.6;fill:#FFFFFF;enable-background:new    ;" width="38.726" height="6.123"/>
				<polygon style="fill:#407BFF;enable-background:new    ;" points="176.435,328.962 127.839,329.203 127.839,329.381 
					176.435,329.381 				"/>
				<polygon style="fill:#407BFF;enable-background:new    ;" points="127.839,326.673 176.435,325.436 176.435,325.623 
					127.839,327.091 				"/>
				<polygon style="fill:#407BFF;enable-background:new    ;" points="127.68,326.338 176.276,326.836 176.276,327.023 
					127.68,326.756 				"/>
			</g>
			<g>
				<g>
					<rect x="121.01" y="321.922" style="fill:#407BFF;" width="48.596" height="2.951"/>
					<rect x="121.01" y="321.948" style="opacity:0.6;fill:#FFFFFF;enable-background:new    ;" width="48.596" height="2.926"/>
					<rect x="121.01" y="321.764" style="opacity:0.6;fill:#FFFFFF;enable-background:new    ;" width="38.726" height="3.11"/>
				</g>
				<polygon style="fill:#407BFF;enable-background:new    ;" points="121.037,324.17 169.633,322.933 169.633,323.12 
					121.037,324.589 				"/>
				<polygon style="fill:#407BFF;enable-background:new    ;" points="121.037,322.689 169.633,323.188 169.633,323.375 
					121.037,323.108 				"/>
			</g>
			<g>
				<g>
					<rect x="125.539" y="318.909" style="fill:#407BFF;" width="48.596" height="2.951"/>
					<rect x="125.539" y="318.934" style="opacity:0.6;fill:#FFFFFF;enable-background:new    ;" width="48.596" height="2.926"/>
					<rect x="125.539" y="318.75" style="opacity:0.6;fill:#FFFFFF;enable-background:new    ;" width="38.725" height="3.11"/>
				</g>
				<polygon style="fill:#407BFF;enable-background:new    ;" points="125.567,320.242 174.175,320.834 174.168,321.021 
					125.551,320.66 				"/>
				<polygon style="fill:#407BFF;enable-background:new    ;" points="125.565,319.676 174.161,320.174 174.161,320.361 
					125.565,320.094 				"/>
			</g>
			<g>
				<rect x="124.524" y="330.742" style="fill:#407BFF;" width="48.596" height="7.886"/>
				<rect x="124.524" y="330.742" style="opacity:0.6;fill:#FFFFFF;enable-background:new    ;" width="48.596" height="7.886"/>
				<rect x="124.524" y="330.742" style="opacity:0.6;fill:#FFFFFF;enable-background:new    ;" width="37.497" height="7.886"/>
				<polygon style="fill:#407BFF;enable-background:new    ;" points="172.812,333.193 124.216,332.917 124.216,332.704 
					172.812,332.704 				"/>
				<polygon style="fill:#407BFF;enable-background:new    ;" points="124.551,334.338 173.147,335.762 173.147,335.549 
					124.551,333.858 				"/>
				<polygon style="fill:#407BFF;enable-background:new    ;" points="173.147,330.751 127.31,330.751 128.324,331.721 
					173.147,331.721 				"/>
				<polygon style="fill:#407BFF;enable-background:new    ;" points="124.718,337.409 173.314,336.822 173.314,336.617 
					124.718,336.92 				"/>
			</g>
		</g>
	</g>
</g>
<g id="Character">
	<g>
		<g>
			<g id="_x3C_Group_x3E__2_">
				<g>
					<path style="fill:#FFC3BD;" d="M251.862,305.498c0.084,3.328-0.026,6.438-0.158,9.652c-0.131,3.214-0.38,6.378-0.697,9.578
						c-0.602,6.533-1.779,12.999-3.516,19.325l-0.803,2.456l-0.201,0.612l-0.047,0.158l-0.081,0.232l-0.248,0.657
						c-0.318,0.765-0.727,1.489-1.219,2.155c-0.784,1.075-1.736,2.017-2.819,2.79c-0.877,0.639-1.81,1.199-2.786,1.672
						c-3.243,1.512-6.683,2.56-10.218,3.116c-6.419,1.059-12.936,1.399-19.43,1.015l-0.336-6.375l4.431-0.909
						c1.487-0.307,2.958-0.674,4.421-1.01c2.925-0.702,5.814-1.452,8.557-2.353c2.536-0.757,4.973-1.813,7.258-3.147
						c0.617-0.33,1.14-0.809,1.522-1.395c-0.014-0.152-0.251,0.514,0.034-0.535l0.494-2.019c1.138-5.759,1.881-11.589,2.221-17.449
						c0.223-2.987,0.363-5.997,0.501-9.018c0.139-3.02,0.181-6.083,0.22-8.962L251.862,305.498z"/>
					<path style="fill:#FFC3BD;" d="M211.983,352.884l-6.991-5.052l-2.115,10.646c0,0,6.908,2.982,8.887-0.5L211.983,352.884z"/>
					<polygon style="fill:#FFC3BD;" points="197.901,348.059 196.57,356.947 202.887,358.478 204.992,347.832 					"/>
				</g>
				<path style="fill:#407BFF;" d="M256.932,296.615c1.529,7.978-4.689,26.789-4.689,26.789l-20.267-2.551
					c3.114-7.123,4.226-17.404,8.142-24.12C243.767,290.705,255.262,287.931,256.932,296.615z"/>
				<path style="opacity:0.5;" d="M256.932,296.615c1.529,7.978-4.689,26.789-4.689,26.789l-20.267-2.551
					c3.114-7.123,4.226-17.404,8.142-24.12C243.767,290.705,255.262,287.931,256.932,296.615z"/>
				<path style="fill:#407BFF;" d="M285.849,290.872c2.656,0.347,4.529,2.782,4.182,5.438c-0.006,0.044-0.012,0.089-0.019,0.133
					c-1.152,7.787-1.842,15.635-2.067,23.503c-0.214,6.629-0.13,12.934,0.085,18.634c0.481,13.36,1.685,23.473,1.597,26.949
					l-44.674,3.775c-7.809-35.519-5.259-61.792-3.069-71.371c0.685-3.044,3.06-5.422,6.102-6.113
					c1.716-0.379,3.766-0.788,5.947-1.116c0.761-0.068,1.536-0.209,2.316-0.3c6.43-0.514,12.883-0.659,19.329-0.434
					c1.221,0.034,2.455,0.107,3.659,0.184C281.639,290.36,283.944,290.624,285.849,290.872z"/>
				<path style="opacity:0.5;" d="M285.849,290.872c2.656,0.347,4.529,2.782,4.182,5.438c-0.006,0.044-0.012,0.089-0.019,0.133
					c-1.152,7.787-1.842,15.635-2.067,23.503c-0.214,6.629-0.13,12.934,0.085,18.634c0.481,13.36,1.685,23.473,1.597,26.949
					l-44.674,3.775c-7.809-35.519-5.259-61.792-3.069-71.371c0.685-3.044,3.06-5.422,6.102-6.113
					c1.716-0.379,3.766-0.788,5.947-1.116c0.761-0.068,1.536-0.209,2.316-0.3c6.43-0.514,12.883-0.659,19.329-0.434
					c1.221,0.034,2.455,0.107,3.659,0.184C281.639,290.36,283.944,290.624,285.849,290.872z"/>
				<path style="fill:#FFC3BD;" d="M273.246,268.296c-1.098,6.237-2.091,17.642,2.335,21.706
					c-9.833,7.982-15.624,18.487-17.745,16.508c-1.116-1.036-2.715-14.081-1.569-16.127c6.899-1.795,6.623-6.927,5.322-11.732
					L273.246,268.296z"/>
				<path style="opacity:0.2;enable-background:new    ;" d="M268.508,272.517l-6.9,6.123c0.324,1.117,0.546,2.262,0.665,3.419
					c2.642-0.431,6.222-3.412,6.443-6.195C268.852,274.745,268.781,273.611,268.508,272.517z"/>
				<path style="fill:#263238;" d="M249.984,252.6c-4.116,0.543-5.751,7.862-1.04,13.394
					C253.656,271.526,255.515,251.868,249.984,252.6z"/>
				<path style="fill:#FFC3BD;" d="M270.896,257.038c1.239,8.34,2.387,13.159-0.87,18.259c-4.908,7.684-15.876,6.079-19.594-1.722
					c-3.331-7.027-4.816-19.489,2.564-24.468c5.242-3.59,12.403-2.251,15.993,2.991
					C270.001,253.574,270.653,255.265,270.896,257.038z"/>
				<path style="fill:#263238;" d="M263.086,258.289c0.621,1.636,2.08,3.083,3.83,3.136c0.947,1.75,1.173,3.876,0.617,5.786
					c1.025,0.132,2.049,0.264,3.073,0.397c-0.134-2.469,2.014-4.83,4.485-4.93c-0.838,3.347-1.826,6.656-2.961,9.915
					c3.318-2.774,5.909-6.409,7.449-10.451c0.745-1.957,1.251-4.044,1.108-6.133c-0.143-2.089-0.994-4.187-2.596-5.535
					c-2.089-1.758-5.136-1.99-7.77-1.271C265.642,250.479,261.039,252.894,263.086,258.289z"/>
				<path style="fill:#FFC3BD;" d="M276.596,263.556c-0.167,2.114-1.169,4.074-2.786,5.447c-2.15,1.809-4.384,0.168-4.754-2.469
					c-0.336-2.374,0.388-6.174,3.008-6.961C274.685,258.785,276.783,260.96,276.596,263.556z"/>
				<path style="fill:#263238;" d="M258.898,261.981c0.142,0.673-0.098,1.298-0.54,1.389c-0.442,0.091-0.904-0.379-1.056-1.051
					c-0.152-0.672,0.099-1.288,0.541-1.379C258.285,260.849,258.757,261.318,258.898,261.981z"/>
				<path style="fill:#263238;" d="M251.338,263.589c0.142,0.673-0.099,1.288-0.541,1.389c-0.441,0.101-0.904-0.379-1.046-1.052
					c-0.142-0.673,0.099-1.288,0.531-1.378C250.715,262.458,251.175,262.918,251.338,263.589z"/>
				<path style="fill:#ED847E;" d="M253.799,263.42c-0.368,2.218-1.039,4.374-1.993,6.41c1.071,0.465,2.292,0.434,3.338-0.084
					L253.799,263.42z"/>
				<path style="fill:#263238;" d="M260.731,259.033c-0.139,0.059-0.3,0.034-0.415-0.065c-0.758-0.688-1.798-0.974-2.801-0.772
					c-0.21,0.081-0.446-0.023-0.527-0.233c-0.011-0.028-0.019-0.057-0.023-0.086c-0.065-0.204,0.047-0.422,0.25-0.487
					c0.011-0.003,0.022-0.006,0.033-0.009c1.264-0.284,2.586,0.067,3.543,0.941c0.171,0.138,0.197,0.388,0.059,0.559
					c-0.003,0.003-0.005,0.006-0.008,0.009C260.814,258.945,260.777,258.993,260.731,259.033z"/>
				<path style="fill:#263238;" d="M258.939,272.137L258.939,272.137c1.924-0.59,3.44-2.082,4.062-3.996
					c0.032-0.113-0.034-0.23-0.146-0.263c-0.119-0.031-0.24,0.039-0.272,0.157c-0.598,1.755-1.995,3.122-3.762,3.683
					c-0.11,0.044-0.17,0.164-0.139,0.278C258.723,272.098,258.83,272.156,258.939,272.137z"/>
				<path style="fill:#263238;" d="M247.513,261.671c-0.076,0.038-0.163,0.045-0.244,0.022c-0.215-0.053-0.348-0.269-0.299-0.485
					c0.284-1.265,1.161-2.316,2.356-2.82c0.206-0.075,0.434,0.032,0.509,0.238c0.001,0.004,0.003,0.009,0.004,0.013
					c0.074,0.2-0.028,0.423-0.228,0.498c-0.004,0.002-0.009,0.003-0.013,0.005l0,0c-0.932,0.402-1.618,1.223-1.848,2.212
					C247.741,261.496,247.648,261.621,247.513,261.671z"/>
				<g>
					<path style="fill:#407BFF;" d="M194.721,323.49l10.394,33.517c0,0,10.285-3.239,14.784-0.424
						c4.452,2.785,7.743,6.131,7.743,6.131l-7.183-36.478C220.46,326.235,210.908,314.96,194.721,323.49z"/>
					<g>
						<path style="fill:#407BFF;" d="M220.46,326.235l7.183,36.478c0,0,11.157-12.072,21.384-7.014l3.471,1.794l-4.196-36.463
							C248.302,321.03,235.014,314.255,220.46,326.235z"/>
						<path style="opacity:0.8;fill:#FFFFFF;" d="M220.46,326.235l7.183,36.478c0,0,11.157-12.072,21.384-7.014l3.471,1.794
							l-4.196-36.463C248.302,321.03,235.014,314.255,220.46,326.235z"/>
					</g>
					<path style="opacity:0.8;fill:#FFFFFF;" d="M194.721,323.49l10.394,33.517c0,0,10.285-3.239,14.784-0.424
						c4.452,2.785,7.743,6.131,7.743,6.131l-7.183-36.478C220.46,326.235,210.908,314.96,194.721,323.49z"/>
				</g>
				<g>
					<path style="fill:#263238;" d="M227.623,362.347c-8.68-2.804-17.13-5.76-24.058,0.4c-2.579-9.911-6.39-19.353-9.288-29.168
						c-2.322-7.864-2.327-6.486,1.826-8.774c3.589-1.974,20.362-3.785,23.904,5.417
						C221.299,333.576,226.988,361.568,227.623,362.347z"/>
					<path style="fill:#263238;" d="M255.113,360.822c-5.131-4.488-13.199-4.247-18.538-0.005c-2.272,1.804-5.451,3.061-5.441,2.836
						l-0.016-0.048l-7.408-34.084c-0.103,0.08-0.205,0.151-0.298,0.223c1.519-5.147,9.403-7.644,14.387-7.799
						c4.758-0.156,10.495,2.392,12.398,3.959C250.198,325.903,253.997,350.935,255.113,360.822z"/>
					<g>
						<path style="fill:#263238;" d="M231.134,363.652c0,0-3.003,0.926-4.173-1.522l-7.31-32.781c0,0,1.228,2.15,3.76,0.395
							c0.093-0.071,0.196-0.142,0.298-0.223l7.408,34.084C231.126,363.633,231.134,363.652,231.134,363.652z"/>
						<path style="opacity:0.1;fill:#FFFFFF;" d="M231.134,363.652c0,0-3.003,0.926-4.173-1.522l-7.31-32.781
							c0,0,1.228,2.15,3.76,0.395c0.093-0.071,0.196-0.142,0.298-0.223l7.408,34.084
							C231.126,363.633,231.134,363.652,231.134,363.652z"/>
					</g>
				</g>
				<g>
					<g>
						<path style="opacity:0.1;" d="M283.625,295.37c-3.747-0.553-5.3,0.794-7.896,5.915c-2.398,4.729-3.714,18.354-3.714,18.354
							c-0.468,7.463-1.419,6.622,5.643,7.164c4.524,0.347,10.247,1.297,10.247,1.297S294.836,297.024,283.625,295.37z"/>
					</g>
					<path style="fill:#FFC3BD;" d="M294.068,302.434c0.083,3.328-0.027,6.438-0.158,9.652c-0.131,3.214-0.38,6.378-0.697,9.578
						c-0.602,6.532-1.779,12.999-3.516,19.325l-0.803,2.456l-0.201,0.611l-0.047,0.158l-0.081,0.232l-0.248,0.657
						c-0.318,0.765-0.727,1.489-1.219,2.156c-0.784,1.075-1.736,2.017-2.819,2.79c-0.877,0.639-1.81,1.199-2.786,1.672
						c-3.243,1.512-6.683,2.56-10.218,3.116c-6.419,1.059-12.936,1.399-19.43,1.016l-0.336-6.375l4.431-0.909
						c1.487-0.307,2.958-0.674,4.422-1.01c2.925-0.702,5.814-1.452,8.557-2.353c2.536-0.757,4.973-1.813,7.258-3.147
						c0.616-0.329,1.14-0.809,1.522-1.395c-0.014-0.152-0.251,0.514,0.034-0.535l0.494-2.019c1.138-5.759,1.881-11.589,2.221-17.449
						c0.223-2.987,0.363-5.997,0.501-9.018c0.138-3.02,0.181-6.083,0.22-8.962L294.068,302.434z"/>
					<path style="fill:#FFC3BD;" d="M254.188,349.82l-6.991-5.052l-2.115,10.646c0,0,6.908,2.982,8.887-0.5L254.188,349.82z"/>
					<polygon style="fill:#FFC3BD;" points="240.107,344.994 238.775,353.882 245.092,355.413 247.197,344.768 					"/>
				</g>
				<g>
					<path style="fill:#407BFF;" d="M294.269,296.236c4.764,6.571,3.19,28.73,3.19,28.73l-22.085-2.113
						c0,0-2.298-12.399,0.982-22.372C279.919,289.665,288.5,288.261,294.269,296.236z"/>
					<path style="opacity:0.5;" d="M294.269,296.236c4.764,6.571,3.19,28.73,3.19,28.73l-22.085-2.113
						c0,0-2.298-12.399,0.982-22.372C279.919,289.665,288.5,288.261,294.269,296.236z"/>
				</g>
				<path style="fill:#263238;" d="M246.466,255.53c-0.847-0.918-2.335-3.563-2.335-3.563c2.911,0.582,3.213-0.914,4.404-4.978
					c1.351-4.611,6.574-7.566,9.344-8.016c19.225-3.117,20.31,7.792,20.502,9.573c0.141,1.304-0.828,2.525-2.008,3.099
					s-2.533,0.643-3.844,0.702c-2.794,0.125-6.938,1.106-9.63,0.4C251.992,249.886,247.797,255.683,246.466,255.53z"/>
			</g>
			<g>
				<polygon style="fill:#FFC3BD;" points="231.973,398.663 245,405.465 251.257,408.73 248.56,415.701 242.374,413.45 
					227.262,407.951 				"/>
				<polygon style="opacity:0.2;enable-background:new    ;" points="231.973,398.663 245,405.465 242.374,413.45 227.262,407.951 
									"/>
				<polygon style="fill:#FFC3BD;" points="209.987,417.157 196.012,421.704 189.301,423.889 186.208,417.085 192.145,414.24 
					206.647,407.292 				"/>
				<polygon style="opacity:0.2;enable-background:new    ;" points="209.987,417.157 196.012,421.704 192.145,414.24 
					206.647,407.292 				"/>
				<path style="fill:#407BFF;" d="M294.5,378.509c-0.269-0.716-0.629-1.341-1.073-1.865c-4.545-5.423-21.249-5.315-31.399-4.248
					c-4.621,0.487-10.635,2.815-17.158,6.117c-1.076-1.569-2.317-2.845-3.676-3.632c-8.453-4.93-19.972-6.719-31.316-6.56
					c16.473-0.529,35.075,0.983,35.075,0.983l44.409-3.674C292.023,369.803,293.735,374.161,294.5,378.509z"/>
				<path style="opacity:0.1;" d="M294.5,378.509c-0.269-0.716-0.629-1.341-1.073-1.865c-4.545-5.423-21.249-5.315-31.399-4.248
					c-4.621,0.487-10.635,2.815-17.158,6.117c-1.076-1.569-2.317-2.845-3.676-3.632c-8.453-4.93-19.972-6.719-31.316-6.56
					c16.473-0.529,35.075,0.983,35.075,0.983l44.409-3.674C292.023,369.803,293.735,374.161,294.5,378.509z"/>
				<path style="fill:#407BFF;" d="M247.316,397.044c-2.452,3.88-7.057,5.998-11.618,6.546c-4.561,0.559-9.17-0.249-13.697-1.055
					c-3.937-0.699-7.875-1.388-11.812-2.087c-6.409-1.14-12.829-2.28-19.249-3.41c-3.622-0.645-7.325-1.312-10.549-3.105
					c-10.372-5.763-12.471-12.254-7.087-16.963c1.469-1.311,3.498-2.464,6.075-3.428c0.092-0.04,0.174-0.08,0.266-0.11
					c5.164-1.898,11.844-3.466,19.077-4.346c0.071-0.01,0.153-0.019,0.225-0.029c3.55-0.425,7.232-0.686,10.932-0.733
					c11.344-0.159,22.863,1.63,31.316,6.56c1.358,0.787,2.6,2.063,3.676,3.632C248.519,383.837,250.17,392.535,247.316,397.044z"/>
				<path style="opacity:0.1;" d="M247.316,397.044c-2.452,3.88-7.057,5.998-11.618,6.546c-4.561,0.559-9.17-0.249-13.697-1.055
					c-3.937-0.699-7.875-1.388-11.812-2.087c-6.409-1.14-12.829-2.28-19.249-3.41c-3.622-0.645-7.325-1.312-10.549-3.105
					c-10.372-5.763-12.471-12.254-7.087-16.963c1.469-1.311,3.498-2.464,6.075-3.428c0.092-0.04,0.174-0.08,0.266-0.11
					c5.164-1.898,11.844-3.466,19.077-4.346c0.071-0.01,0.153-0.019,0.225-0.029c3.55-0.425,7.232-0.686,10.932-0.733
					c11.344-0.159,22.863,1.63,31.316,6.56c1.358,0.787,2.6,2.063,3.676,3.632C248.519,383.837,250.17,392.535,247.316,397.044z"/>
				<g>
					<path style="fill:#407BFF;" d="M176.358,375.005c0,0-11.141,5.598-8.657,16.662c0,0,1.796,7.062,22.824,11.255
						c21.029,4.192,47.707,9.022,47.707,9.022l2.691-8.607c0,0-27.667-23.888-48.595-29.017
						C183.312,372.109,176.358,375.005,176.358,375.005z"/>
					<g>
						<g>
							<polygon style="fill:#407BFF;" points="239.404,415.292 232.621,415.163 238.547,398.484 243.91,401.621 							"/>
						</g>
						<g style="opacity:0.6;enable-background:new    ;">
							<polygon style="fill:#FFFFFF;" points="239.404,415.292 232.621,415.163 238.547,398.484 243.91,401.621 							"/>
						</g>
					</g>
				</g>
				<g>
					<path style="fill:#407BFF;" d="M247.486,404.981c0.131,0.567,20.263,5.987,27.766,3.331
						C298.716,400.005,241.947,381.063,247.486,404.981z"/>
					<path style="opacity:0.1;" d="M247.486,404.981c0.131,0.567,20.263,5.987,27.766,3.331
						C298.716,400.005,241.947,381.063,247.486,404.981z"/>
				</g>
				<path style="fill:#407BFF;" d="M293.741,392.056c-0.546,1.676-1.224,3.311-2.022,4.822c0,0.01-0.011,0.02-0.011,0.031
					c-0.145,0.264-0.28,0.527-0.425,0.781c-0.383,0.669-0.776,1.307-1.2,1.915c-0.031,0.04-0.062,0.081-0.083,0.121
					c-0.196,0.284-0.392,0.547-0.599,0.81c-5.998,7.735-21.707,10.775-25.417,5.772c-2.24-3.02-3.498-7.617-3.498-7.617
					s-16.828,9.102-39.349,16.606c-6.962,2.32-14.391,4.523-21.888,6.328l-4.527-9.51c0,0,0.636-0.504,1.786-1.4
					c2.505-1.964,7.463-5.78,13.681-10.267c9.942-7.173,23.121-16.079,34.681-21.933c6.523-3.302,12.536-5.63,17.158-6.117
					c10.15-1.067,26.854-1.176,31.399,4.248c0.444,0.524,0.804,1.149,1.073,1.865C295.823,381.885,295.367,387.119,293.741,392.056z
					"/>
				<g>
					<g>
						<polygon style="fill:#407BFF;" points="193.887,410.305 198.94,405.778 205.964,422.025 199.902,423.383 						"/>
					</g>
					<g style="opacity:0.6;enable-background:new    ;">
						<polygon style="fill:#FFFFFF;" points="193.887,410.305 198.94,405.778 205.964,422.025 199.902,423.383 						"/>
					</g>
				</g>
			</g>
			<g>
				<g>
					<path style="fill:#407BFF;" d="M239.525,421.205c0.341,0.259,0.825,0.362,1.277,0.275c0.222-0.066,0.436-0.152,0.641-0.25
						c0.584-0.268,1.072-0.656,1.419-1.124c0.116-0.139,0.225-0.275,0.336-0.42c0.5-0.636,0.944-1.299,1.319-1.982
						c0.042-0.082,0.014-0.174-0.066-0.229c-0.079-0.055-0.195-0.057-0.286-0.007c-0.093,0.036-0.335,0.137-0.666,0.28
						c-0.047,0.018-0.1,0.039-0.154,0.061l-0.021,0.012c-0.277,0.121-0.603,0.27-0.951,0.44c-1.374,0.667-3.038,1.604-3.15,2.34
						C239.198,420.831,239.313,421.058,239.525,421.205z M239.73,420.659c0.029-0.132,0.098-0.254,0.204-0.346
						c0.932-0.769,2.002-1.416,3.17-1.927c0.088-0.041,0.17-0.078,0.263-0.114c0.128-0.055,0.249-0.106,0.382-0.155
						c-0.155,0.261-0.324,0.505-0.478,0.732c-0.4,0.572-0.796,1.042-1.181,1.407c-0.488,0.472-0.96,0.76-1.373,0.833
						c-0.314,0.067-0.639-0.009-0.862-0.192C239.764,420.839,239.717,420.749,239.73,420.659z"/>
					<path style="fill:#407BFF;" d="M237.878,417.233c0.463,0.73,2.894,1.068,4.496,1.029c0.306-0.005,0.586-0.028,0.814-0.064
						c0.019-0.002,0.026-0.006,0.045-0.008c0.031-0.001,0.07-0.014,0.093-0.035c0.037-0.029,0.069-0.063,0.084-0.105
						c0.026-0.065,0.012-0.14-0.049-0.197c-0.005-0.005-0.01-0.011-0.026-0.018c0.002-0.009,0.002-0.009-0.01-0.011
						c-0.27-0.248-2.022-1.787-3.711-1.882c-0.506-0.033-1.011,0.099-1.389,0.377C237.689,416.698,237.742,417.018,237.878,417.233z
						 M238.328,417.048c-0.027-0.043-0.114-0.177,0.234-0.43l0.12-0.076c0.26-0.153,0.585-0.219,0.904-0.197
						c1.153,0.063,2.472,1.012,3.074,1.498C241.136,417.948,238.669,417.58,238.328,417.048z"/>
				</g>
				<path style="fill:#263238;" d="M244.224,414.561l6.678-6.951c0.25-0.278,0.718-0.366,1.099-0.207l8.486,3.656
					c0.825,0.386,1.106,1.233,0.626,1.891c-0.031,0.043-0.065,0.084-0.102,0.124c-8.911,12.295-13.966,15.709-15.229,16.94
					c-3.605,3.513-6.572,0.773-5.793-0.626c3.522-6.274,3.53-8.56,3.282-11.547C243.329,416.29,243.828,414.98,244.224,414.561z"/>
			</g>
			<g>
				<g>
					<path style="fill:#407BFF;" d="M181.07,409.123c-0.349,0.246-0.595,0.677-0.649,1.134c-0.005,0.232,0.013,0.462,0.044,0.686
						c0.078,0.638,0.301,1.221,0.642,1.692c0.098,0.153,0.194,0.298,0.299,0.448c0.455,0.669,0.952,1.293,1.49,1.858
						c0.065,0.065,0.161,0.065,0.238,0.006c0.077-0.059,0.113-0.169,0.093-0.27c-0.005-0.1-0.029-0.361-0.066-0.719
						c-0.003-0.05-0.007-0.108-0.011-0.165l-0.005-0.023c-0.032-0.301-0.075-0.656-0.131-1.04c-0.22-1.511-0.609-3.382-1.276-3.711
						C181.526,408.924,181.275,408.966,181.07,409.123z M181.529,409.484c0.117,0.068,0.212,0.171,0.268,0.299
						c0.451,1.121,0.744,2.337,0.877,3.605c0.012,0.097,0.023,0.186,0.029,0.285c0.013,0.139,0.025,0.269,0.032,0.411
						c-0.202-0.227-0.383-0.462-0.553-0.677c-0.424-0.554-0.753-1.074-0.983-1.551c-0.302-0.608-0.434-1.146-0.378-1.561
						c0.031-0.32,0.202-0.607,0.444-0.764C181.347,409.462,181.447,409.443,181.529,409.484z"/>
					<path style="fill:#407BFF;" d="M185.355,408.756c-0.836,0.221-1.894,2.435-2.342,3.974c-0.088,0.293-0.15,0.567-0.185,0.795
						c-0.004,0.019-0.002,0.026-0.006,0.045c-0.009,0.029-0.007,0.071,0.006,0.099c0.016,0.044,0.04,0.085,0.075,0.112
						c0.053,0.045,0.129,0.054,0.203,0.013c0.007-0.003,0.014-0.006,0.026-0.02c0.008,0.005,0.008,0.005,0.014-0.006
						c0.318-0.182,2.315-1.386,2.917-2.967c0.185-0.472,0.212-0.994,0.062-1.438C185.921,408.738,185.601,408.691,185.355,408.756z
						 M185.395,409.24c0.049-0.013,0.203-0.055,0.339,0.354l0.035,0.138c0.068,0.294,0.031,0.624-0.085,0.922
						c-0.409,1.08-1.713,2.05-2.359,2.476C183.688,411.644,184.785,409.405,185.395,409.24z"/>
				</g>
				<path style="fill:#263238;" d="M186.381,416.26l3.604,6.962c0.189,0.323,0.131,0.795-0.135,1.11l-7.201,5.396
					c-0.618,0.67-1.509,0.681-1.991,0.024c-0.031-0.043-0.06-0.087-0.087-0.134c-9.021-12.215-11.118-17.791-11.909-19.368
					c-2.256-4.5,1.253-6.498,2.35-5.331c4.914,5.256,8.695,8.231,11.617,8.899C186.665,415.268,186.102,415.755,186.381,416.26z"/>
			</g>
		</g>
		<g>
			<g>
				<g>
					<path style="fill:#263238;" d="M249.135,267.846c-0.021,0-0.043,0-0.065,0c-2.298-0.036-4.138-1.935-4.102-4.233
						c0.017-1.113,0.467-2.153,1.267-2.928c0.8-0.775,1.848-1.177,2.966-1.175c2.298,0.036,4.138,1.935,4.102,4.233l0,0
						C253.267,266.019,251.404,267.846,249.135,267.846z M249.134,260.45c-0.843,0-1.638,0.322-2.245,0.91
						c-0.619,0.6-0.967,1.406-0.981,2.268c-0.028,1.78,1.397,3.251,3.177,3.278c0.016,0,0.033,0,0.05,0
						c1.757,0,3.201-1.415,3.228-3.177c0.028-1.78-1.398-3.251-3.177-3.278C249.168,260.451,249.151,260.45,249.134,260.45z"/>
				</g>
				<g>
					<path style="fill:#263238;" d="M258.746,265.563c-0.021,0-0.043,0-0.065,0c-2.298-0.036-4.138-1.935-4.102-4.233
						c0.017-1.113,0.467-2.153,1.267-2.928c0.799-0.775,1.846-1.183,2.966-1.175c2.298,0.036,4.138,1.935,4.102,4.233l0,0
						C262.879,263.736,261.015,265.563,258.746,265.563z M258.745,258.167c-0.842,0-1.638,0.322-2.245,0.91
						c-0.619,0.6-0.967,1.406-0.981,2.268c-0.028,1.78,1.397,3.251,3.177,3.278c1.786-0.004,3.251-1.399,3.278-3.177
						c0.028-1.78-1.398-3.251-3.177-3.278C258.78,258.168,258.763,258.167,258.745,258.167z"/>
				</g>
				<g>
					<path style="fill:#263238;" d="M252.939,262.195l-0.922-0.18c0.03-0.156,0.327-1.537,1.329-1.839
						c0.624-0.187,1.309,0.092,2.038,0.832l-0.669,0.659c-0.452-0.459-0.842-0.669-1.098-0.592
						C253.252,261.185,252.998,261.89,252.939,262.195z"/>
				</g>
			</g>
			<g>
				<polygon style="fill:#263238;" points="262.494,261.197 262.277,260.283 271.767,258.027 273.603,258.433 273.401,259.351 
					271.774,258.991 				"/>
			</g>
		</g>
	</g>
</g>
<g id="Books">
	<g>
		<g>
			<g>
				<g>
					<g>
						<path style="fill:#407BFF;" d="M307.942,391.076v6.42c-0.791,0-0.792,1.229,0,1.229c2.447,0,4.895,0.017,7.343,0.031v-8.909
							c-2.448,0-4.896,0-7.343,0C307.151,389.847,307.15,391.076,307.942,391.076z"/>
						<path style="opacity:0.3;fill:#FFFFFF;" d="M307.942,391.076v6.42c-0.791,0-0.792,1.229,0,1.229
							c2.447,0,4.895,0.017,7.343,0.031v-8.909c-2.448,0-4.896,0-7.343,0C307.151,389.847,307.15,391.076,307.942,391.076z"/>
					</g>
					<rect x="307.942" y="391.086" style="fill:#407BFF;" width="5.704" height="6.411"/>
					<rect x="307.942" y="391.086" style="opacity:0.6;fill:#FFFFFF;" width="5.704" height="6.411"/>
				</g>
				<path style="fill:#407BFF;" d="M312.449,390.462h31.489c1.359,0,2.461,1.712,2.461,3.824c0,2.112-1.102,3.824-2.461,3.824
					h-31.489V390.462z"/>
				<path style="opacity:0.9;fill:#FFFFFF;" d="M312.449,390.462h31.489c1.359,0,2.461,1.712,2.461,3.824
					c0,2.112-1.102,3.824-2.461,3.824h-31.489V390.462z"/>
				<g>
					<g>
						<path style="fill:#407BFF;" d="M312.449,398.725c6.474,0,24.673,0.117,31.146,0c4.434-0.08,4.673-8.58,0.323-8.878
							c-3.032-0.208-6.151,0-9.188,0c-3.523,0-18.759,0-22.281,0c-0.791,0-0.792,1.229,0,1.229c6.137,0,23.986,0,30.123,0
							c1.42,0,2.436,0.016,2.985,1.691c0.475,1.45,0.325,4.408-1.619,4.728c-0.209,0.034-0.456,0-0.666,0c-3.346,0-6.692,0-10.037,0
							c-3.024,0-17.762,0-20.786,0C311.659,397.496,311.657,398.725,312.449,398.725L312.449,398.725z"/>
					</g>
				</g>
				<g style="opacity:0.2;">
					<g>
						<path style="fill:#FFFFFF;" d="M312.449,398.725c6.474,0,24.673,0.117,31.146,0c4.434-0.08,4.673-8.58,0.323-8.878
							c-3.032-0.208-6.151,0-9.188,0c-3.523,0-18.759,0-22.281,0c-0.791,0-0.792,1.229,0,1.229c6.137,0,23.986,0,30.123,0
							c1.42,0,2.436,0.016,2.985,1.691c0.475,1.45,0.325,4.408-1.619,4.728c-0.209,0.034-0.456,0-0.666,0c-3.346,0-6.692,0-10.037,0
							c-3.024,0-17.762,0-20.786,0C311.659,397.496,311.657,398.725,312.449,398.725L312.449,398.725z"/>
					</g>
				</g>
			</g>
			<g>
				<g>
					<g>
						<path style="fill:#407BFF;" d="M309.037,399.74v5.945c-0.733,0-0.734,1.138,0,1.138c2.266,0,4.533,0.015,6.801,0.029v-8.251
							c-2.267,0-4.534,0-6.801,0C308.305,398.602,308.303,399.74,309.037,399.74z"/>
						<path style="opacity:0.3;fill:#FFFFFF;" d="M309.037,399.74v5.945c-0.733,0-0.734,1.138,0,1.138
							c2.266,0,4.533,0.015,6.801,0.029v-8.251c-2.267,0-4.534,0-6.801,0C308.305,398.602,308.303,399.74,309.037,399.74z"/>
					</g>
					<rect x="309.037" y="399.749" style="fill:#407BFF;" width="5.283" height="5.937"/>
					<rect x="309.037" y="399.749" style="opacity:0.6;fill:#FFFFFF;" width="5.283" height="5.937"/>
				</g>
				<path style="fill:#407BFF;" d="M313.211,399.171h29.163c1.259,0,2.28,1.586,2.28,3.542c0,1.956-1.021,3.542-2.28,3.542h-29.163
					V399.171z"/>
				<path style="opacity:0.9;fill:#FFFFFF;" d="M313.211,399.171h29.163c1.259,0,2.28,1.586,2.28,3.542
					c0,1.956-1.021,3.542-2.28,3.542h-29.163V399.171z"/>
				<g>
					<g>
						<path style="fill:#407BFF;" d="M313.211,406.824c5.996,0,22.85,0.108,28.845,0c4.107-0.074,4.327-7.946,0.299-8.222
							c-2.808-0.193-5.696,0-8.509,0c-3.262,0-17.373,0-20.635,0c-0.732,0-0.734,1.138,0,1.138c5.683,0,22.214,0,27.897,0
							c1.315,0,2.256,0.015,2.764,1.566c0.44,1.343,0.301,4.082-1.499,4.379c-0.194,0.032-0.422,0-0.617,0c-3.099,0-6.197,0-9.296,0
							c-2.801,0-16.449,0-19.25,0C312.479,405.686,312.478,406.824,313.211,406.824L313.211,406.824z"/>
					</g>
				</g>
			</g>
			<g>
				<g>
					<g>
						<path style="fill:#407BFF;" d="M305.647,408.075v7.075c-0.872,0-0.873,1.355,0,1.355c2.696,0,5.395,0.018,8.093,0.034v-9.819
							c-2.698,0-5.396,0-8.093,0C304.776,406.72,304.774,408.075,305.647,408.075z"/>
						<path style="opacity:0.3;fill:#FFFFFF;" d="M305.647,408.075v7.075c-0.872,0-0.873,1.355,0,1.355
							c2.696,0,5.395,0.018,8.093,0.034v-9.819c-2.698,0-5.396,0-8.093,0C304.776,406.72,304.774,408.075,305.647,408.075z"/>
					</g>
					<rect x="305.647" y="408.085" style="fill:#407BFF;" width="6.287" height="7.065"/>
					<rect x="305.647" y="408.085" style="opacity:0.6;fill:#FFFFFF;" width="6.287" height="7.065"/>
				</g>
				<path style="fill:#407BFF;" d="M310.615,407.397h34.705c1.498,0,2.713,1.887,2.713,4.215c0,2.328-1.215,4.215-2.713,4.215
					h-34.705V407.397z"/>
				<path style="opacity:0.9;fill:#FFFFFF;" d="M310.615,407.397h34.705c1.498,0,2.713,1.887,2.713,4.215
					c0,2.328-1.215,4.215-2.713,4.215h-34.705V407.397z"/>
				<g>
					<g>
						<path style="fill:#407BFF;" d="M310.615,416.505c7.136,0,27.193,0.129,34.327,0c4.887-0.088,5.15-9.456,0.356-9.785
							c-3.342-0.229-6.779,0-10.127,0c-3.882,0-20.674,0-24.557,0c-0.872,0-0.873,1.355,0,1.355c6.763,0,26.436,0,33.199,0
							c1.565,0,2.685,0.017,3.29,1.864c0.523,1.598,0.358,4.858-1.784,5.211c-0.231,0.038-0.503,0-0.734,0
							c-3.687,0-7.375,0-11.062,0c-3.333,0-19.576,0-22.909,0C309.743,415.15,309.742,416.505,310.615,416.505L310.615,416.505z"/>
					</g>
				</g>
				<g style="opacity:0.2;">
					<g>
						<path d="M310.615,416.505c7.136,0,27.193,0.129,34.327,0c4.887-0.088,5.15-9.456,0.356-9.785c-3.342-0.229-6.779,0-10.127,0
							c-3.882,0-20.674,0-24.557,0c-0.872,0-0.873,1.355,0,1.355c6.763,0,26.436,0,33.199,0c1.565,0,2.685,0.017,3.29,1.864
							c0.523,1.598,0.358,4.858-1.784,5.211c-0.231,0.038-0.503,0-0.734,0c-3.687,0-7.375,0-11.062,0c-3.333,0-19.576,0-22.909,0
							C309.743,415.15,309.742,416.505,310.615,416.505L310.615,416.505z"/>
					</g>
				</g>
			</g>
		</g>
		<g>
			<g>
				<polygon style="fill:#407BFF;" points="92.299,414.91 101.797,400.013 118.323,394.67 141.53,398.304 142.916,412.168 
					131.406,414.348 121.515,412.853 116.016,410.71 109.683,416.136 100.869,417.673 95.013,416.925 				"/>
				<polygon style="opacity:0.1;" points="92.299,414.91 101.797,400.013 118.323,394.67 141.53,398.304 142.916,412.168 
					131.406,414.348 121.515,412.853 116.016,410.71 109.683,416.136 100.869,417.673 95.013,416.925 				"/>
			</g>
			<polygon style="opacity:0.2;" points="121.535,395.173 119.839,412.199 116.017,410.71 111.643,414.456 115.371,395.625 
				118.323,394.67 			"/>
			<g>
				<path style="fill:#407BFF;" d="M91.702,417.285c0,0,16.427,6.837,24.831-5.015c0,0,17.21,8.442,26.383-0.103l-1.585-2.598
					c0,0-4.461,7.302-25.495-0.516c0,0-8.934,11.659-23.537,5.856L91.702,417.285z"/>
				<path style="opacity:0.8;fill:#FFFFFF;" d="M91.702,417.285c0,0,16.427,6.837,24.831-5.015c0,0,17.21,8.442,26.383-0.103
					l-1.585-2.598c0,0-4.461,7.302-25.495-0.516c0,0-8.934,11.659-23.537,5.856L91.702,417.285z"/>
			</g>
		</g>
		<g>
			<g>
				<polygon style="fill:#407BFF;" points="104.046,402.545 115.96,392.987 132.774,392.058 154.267,399.252 152.954,410.095 
					141.536,409.565 132.366,406.54 127.517,403.858 120.43,406.792 111.712,406.286 106.257,404.599 				"/>
				<polygon style="opacity:0.1;" points="104.046,402.545 115.96,392.987 132.774,392.058 154.267,399.252 152.954,410.095 
					141.536,409.565 132.366,406.54 127.517,403.858 120.43,406.792 111.712,406.286 106.257,404.599 				"/>
			</g>
			<polygon style="opacity:0.2;" points="135.749,393.054 130.887,405.723 127.517,403.858 122.624,405.884 129.771,392.224 
				132.775,392.058 			"/>
			<g>
				<path style="fill:#407BFF;" d="M103.023,404.244c0,0,14.402,8.346,24.691,0.904c0,0,14.845,9.72,25.24,4.947l-1.021-2.284
					c0,0-5.654,4.722-24.273-5.25c0,0-10.758,7.195-23.614-0.015L103.023,404.244z"/>
				<path style="opacity:0.8;fill:#FFFFFF;" d="M103.023,404.244c0,0,14.402,8.346,24.691,0.904c0,0,14.845,9.72,25.24,4.947
					l-1.021-2.284c0,0-5.654,4.722-24.273-5.25c0,0-10.758,7.195-23.614-0.015L103.023,404.244z"/>
			</g>
		</g>
	</g>
	<g>
		<g>
			<g>
				<path style="fill:#407BFF;" d="M243.509,373.605l52.68,2.234c0,0-0.948-6.448-1.639-6.623
					c-0.681-0.174-9.341-7.628-19.428-4.081c-2.204,0.769-3.799,1.351-4.942,1.778c-1.102-0.522-2.643-1.237-4.774-2.19
					c-9.76-4.389-19.011,2.306-19.714,2.421C244.999,367.26,243.509,373.605,243.509,373.605z"/>
				<path style="opacity:0.6;fill:#FFFFFF;" d="M243.508,373.605l52.68,2.234l-0.023-0.158c-0.154-0.997-0.989-6.301-1.619-6.466
					c-0.029-0.011-0.068-0.022-0.116-0.054c-1.228-0.67-9.604-7.442-19.305-4.027c-2.211,0.77-3.805,1.35-4.942,1.782
					c-1.106-0.528-2.646-1.24-4.773-2.194c-9.763-4.388-19.014,2.304-19.716,2.421C245.003,367.262,243.508,373.605,243.508,373.605
					z"/>
			</g>
			<g>
				<path style="fill:#407BFF;" d="M237.494,373.35l53.317,2.261c0,0-0.96-6.526-1.658-6.703c-0.689-0.176-9.496-6.741-19.705-3.151
					c-2.231,0.779-5.097,4.052-5.097,4.052s-2.579-3.504-4.736-4.469c-9.878-4.441-19.199,1.354-19.911,1.471
					C239.003,366.929,237.494,373.35,237.494,373.35z"/>
				<path style="opacity:0.8;fill:#FFFFFF;" d="M237.494,373.35l53.317,2.261c0,0-0.96-6.526-1.658-6.703
					c-0.689-0.176-9.496-6.741-19.705-3.151c-2.231,0.779-5.097,4.052-5.097,4.052s-2.579-3.504-4.736-4.469
					c-9.878-4.441-19.199,1.354-19.911,1.471C239.003,366.929,237.494,373.35,237.494,373.35z"/>
			</g>
			<g>
				<g>
					<polygon style="fill:#407BFF;" points="264.035,371.581 265.599,374.721 261.59,374.551 					"/>
				</g>
				<g style="opacity:0.3;">
					<polygon points="264.035,371.581 265.599,374.721 261.59,374.551 					"/>
				</g>
			</g>
			<path style="opacity:0.1;" d="M289.22,368.94c0.331,0.75,0.583,1.516,0.755,2.318c0.417,1.97,0.836,4.352,0.836,4.352
				l5.377,0.228l-0.023-0.158c-0.154-0.997-0.989-6.301-1.619-6.466c-0.029-0.011-0.068-0.022-0.116-0.054L289.22,368.94z"/>
			<g>
				<g>
					<path style="fill:#263238;" d="M235.374,375.238l26.114,1.716l0.061-0.047c1.148-0.942,2.823-0.871,3.888,0.165l0.057,0.051
						l26.938,0.789l6.8,0.21l-0.41-2.353l-33.21-1.408c-0.546-0.553-1.249-0.848-1.964-0.878c-0.725-0.031-1.461,0.203-2.041,0.708
						l-25.482-1.12L235.374,375.238z"/>
				</g>
			</g>
			<g style="opacity:0.3;">
				<polygon points="292.007,375.484 292.436,377.909 299.235,378.119 298.818,375.773 				"/>
			</g>
		</g>
		<g>
			<path style="fill:#407BFF;" d="M261.781,370.05c0,0-3.899-4.886-8.911-4.225C252.87,365.825,256.374,365.536,261.781,370.05z"/>
			<path style="opacity:0.4;fill:#FFFFFF;" d="M261.781,370.05c0,0-3.899-4.886-8.911-4.225
				C252.87,365.825,256.374,365.536,261.781,370.05z"/>
		</g>
		<g>
			<path style="fill:#407BFF;" d="M271.458,372.629c0,0,5.613-2.752,9.861-0.012C281.319,372.617,278.275,370.859,271.458,372.629z"
				/>
			<path style="opacity:0.4;fill:#FFFFFF;" d="M271.458,372.629c0,0,5.613-2.752,9.861-0.012
				C281.319,372.617,278.275,370.859,271.458,372.629z"/>
		</g>
		<g>
			<path style="fill:#407BFF;" d="M266.336,370.796c0,0,4.577-4.259,9.436-2.866C275.772,367.93,272.348,367.128,266.336,370.796z"
				/>
			<path style="opacity:0.4;fill:#FFFFFF;" d="M266.336,370.796c0,0,4.577-4.259,9.436-2.866
				C275.772,367.93,272.348,367.128,266.336,370.796z"/>
		</g>
		<g>
			<path style="fill:#407BFF;" d="M255.251,369.698c0,0-5.344-3.244-9.821-0.896C245.43,368.802,248.621,367.324,255.251,369.698z"
				/>
			<path style="opacity:0.4;fill:#FFFFFF;" d="M255.251,369.698c0,0-5.344-3.244-9.821-0.896
				C245.43,368.802,248.621,367.324,255.251,369.698z"/>
		</g>
	</g>
</g>
<g id="Globe">
	<g>
		<path style="fill:#407BFF;" d="M324.208,368.954c-1.692,0.335-3.428,0.51-5.191,0.515c-7.17,0.02-13.92-2.753-19.004-7.809
			l-0.774,0.779c5.293,5.264,12.318,8.15,19.781,8.129c1.858-0.005,3.687-0.191,5.469-0.548c-0.203-0.24-0.333-0.541-0.319-0.856
			C324.172,369.093,324.195,369.024,324.208,368.954z"/>
		<g>
			
				<rect x="322.167" y="368.134" transform="matrix(1 -0.0028 0.0028 1 -1.0466 0.9071)" style="fill:#407BFF;" width="5.308" height="15.35"/>
		</g>
		<g style="opacity:0.2;">
			<rect x="322.167" y="368.134" transform="matrix(1 -0.0028 0.0028 1 -1.0466 0.9071)" width="5.308" height="15.35"/>
		</g>
		<path style="fill:#407BFF;" d="M308.688,389.795c-0.011-4.004,7.203-7.27,16.113-7.294c8.91-0.025,16.142,3.201,16.153,7.204l0,0
			c-10.128,2.914-21.676,2.986-31.867,0.199L308.688,389.795z"/>
		<g>
			
				<rect x="293.359" y="343.43" transform="matrix(0.7026 -0.7116 0.7116 0.7026 -149.3997 330.4687)" style="fill:#407BFF;" width="54.643" height="1.099"/>
		</g>
		<g>
			<path style="fill:#407BFF;" d="M346.883,342.548c-0.021-7.464-2.947-14.473-8.239-19.736l-0.774,0.779
				c5.084,5.056,7.895,11.79,7.915,18.96c0.02,7.171-2.753,13.919-7.809,19.003c-3.813,3.834-8.58,6.373-13.768,7.4
				c-0.013,0.07-0.036,0.139-0.039,0.21c-0.014,0.315,0.117,0.616,0.319,0.856c5.375-1.077,10.313-3.716,14.266-7.691
				C344.017,357.037,346.904,350.012,346.883,342.548z"/>
		</g>
		<g>
			<path style="fill:#407BFF;" d="M335.197,357.797c-7.631,7.903-20.224,8.124-28.127,0.493c-7.903-7.631-8.124-20.224-0.493-28.127
				c7.631-7.903,20.224-8.124,28.128-0.493C342.608,337.301,342.828,349.894,335.197,357.797z"/>
			<g>
				<g>
					<g>
						<g>
							<g>
								<g>
									<path style="fill:#407BFF;" d="M328.405,351.239l-0.644-0.622c4.579-4.742,8.299-13.412,6.549-20.805l0.87-0.207
										C337.005,337.311,333.153,346.321,328.405,351.239z"/>
								</g>
								<g>
									<path style="fill:#407BFF;" d="M307.444,358.331l0.176-0.877c7.45,1.491,15.983-2.531,20.563-7.273l0.644,0.622
										C324.078,355.719,315.209,359.884,307.444,358.331z"/>
								</g>
							</g>
							<g>
								<g>
									<path style="fill:#407BFF;" d="M314.098,337.418l-0.644-0.622c4.748-4.917,13.617-9.082,21.382-7.531l-0.175,0.879
										C327.211,328.654,318.677,332.676,314.098,337.418z"/>
								</g>
								<g>
									<path style="fill:#407BFF;" d="M307.099,357.992c-1.823-7.706,2.029-16.715,6.777-21.632l0.644,0.622
										c-4.579,4.742-8.299,13.411-6.549,20.805L307.099,357.992z"/>
								</g>
							</g>
							<g>
								
									<rect x="301.038" y="343.568" transform="matrix(0.6946 -0.7194 0.7194 0.6946 -149.4712 335.9395)" style="fill:#407BFF;" width="39.785" height="0.895"/>
							</g>
						</g>
					</g>
					<g>
						<g>
							
								<rect x="327.844" y="319.555" transform="matrix(0.6946 -0.7194 0.7194 0.6946 -141.7399 338.8957)" style="fill:#407BFF;" width="0.895" height="33.676"/>
						</g>
						<g>
							
								<rect x="320.248" y="324.376" transform="matrix(0.6946 -0.7194 0.7194 0.6946 -149.7185 335.8359)" style="fill:#407BFF;" width="0.895" height="39.767"/>
						</g>
						<g>
							
								<rect x="312.659" y="335.727" transform="matrix(0.6946 -0.7194 0.7194 0.6946 -157.6904 332.7761)" style="fill:#407BFF;" width="0.895" height="32.786"/>
						</g>
					</g>
				</g>
				<g style="opacity:0.2;">
					<g>
						<g>
							<g>
								<g>
									<path d="M328.405,351.239l-0.644-0.622c4.579-4.742,8.299-13.412,6.549-20.805l0.87-0.207
										C337.005,337.311,333.153,346.321,328.405,351.239z"/>
								</g>
								<g>
									<path d="M307.444,358.331l0.176-0.877c7.45,1.491,15.983-2.531,20.563-7.273l0.644,0.622
										C324.078,355.719,315.209,359.884,307.444,358.331z"/>
								</g>
							</g>
							<g>
								<g>
									<path d="M314.098,337.418l-0.644-0.622c4.748-4.917,13.617-9.082,21.382-7.531l-0.175,0.879
										C327.211,328.654,318.677,332.676,314.098,337.418z"/>
								</g>
								<g>
									<path d="M307.099,357.992c-1.823-7.706,2.029-16.715,6.777-21.632l0.644,0.622c-4.579,4.742-8.299,13.411-6.549,20.805
										L307.099,357.992z"/>
								</g>
							</g>
							<g>
								
									<rect x="301.038" y="343.568" transform="matrix(0.6946 -0.7194 0.7194 0.6946 -149.4712 335.9395)" width="39.785" height="0.895"/>
							</g>
						</g>
					</g>
					<g>
						<g>
							
								<rect x="327.844" y="319.555" transform="matrix(0.6946 -0.7194 0.7194 0.6946 -141.7399 338.8957)" width="0.895" height="33.676"/>
						</g>
						<g>
							
								<rect x="320.248" y="324.376" transform="matrix(0.6946 -0.7194 0.7194 0.6946 -149.7185 335.8359)" width="0.895" height="39.767"/>
						</g>
						<g>
							
								<rect x="312.659" y="335.727" transform="matrix(0.6946 -0.7194 0.7194 0.6946 -157.6904 332.7761)" width="0.895" height="32.786"/>
						</g>
					</g>
				</g>
			</g>
		</g>
	</g>
</g>
</svg>
